<?xml version="1.0" encoding="UTF-8"?>
<svg width="24px" height="24px" viewBox="0 0 24 24" version="1.1" xmlns="http://www.w3.org/2000/svg" xmlns:xlink="http://www.w3.org/1999/xlink">
    <!-- Generator: Sketch 61.2 (89653) - https://sketch.com -->
    <title>Players</title>
    <desc>Created with Sketch.</desc>
    <g id="Players" stroke="none" stroke-width="1" fill="none" fill-rule="evenodd">
        <g id="Group-7-Copy-15" transform="translate(0.000000, 2.000000)" fill-rule="nonzero">
            <path d="M23.2591744,1.25044532 L17.4660986,0.00907521836 C17.4376291,0.00299436139 17.4085147,0 17.3794003,0 L15.2558913,0 C15.133445,0 15.0174941,0.0541288405 14.9386733,0.147921453 C14.875976,0.222918689 14.8517447,0.31767871 14.8516065,0.413820744 L8.73481719,0.413820744 C8.73467898,0.31767871 8.71044769,0.222918689 8.64775037,0.147921453 C8.56897563,0.0541749076 8.45297868,0 8.33053233,0 L5.79324869,0 C5.76192307,0 5.73082777,0.00363930076 5.70010102,0.0105032984 L0.320753821,1.2518734 C0.107601358,1.30116519 -0.0304156688,1.50786826 0.00574700338,1.72364655 L0.908477861,7.10294768 C0.942014709,7.30218788 1.11453599,7.44826665 1.31658628,7.44826665 L4.79723196,7.44826665 L5.37993469,19.222407 C5.39186607,19.4418246 5.5732783,19.6137931 5.79311049,19.6137931 L17.7930829,19.6137931 C18.012915,19.6137931 18.1943273,19.4418707 18.2062587,19.222407 L18.7889614,7.44826665 L22.2696071,7.44826665 C22.4716574,7.44826665 22.6442247,7.30218788 22.6777615,7.10294768 L23.5804924,1.72364655 C23.6172079,1.5054267 23.4755976,1.29692702 23.2591744,1.25044532 Z" id="Path-Copy-6" fill="#3B5D99"></path>
            <path d="M16.5075295,0.0167856145 C16.483044,0.0642165252 16.4658349,0.11580534 16.4658349,0.172899529 C16.4658349,2.74710441 14.3715215,4.84137931 11.7973551,4.84137931 C9.22318875,4.84137931 7.12887535,2.74710441 7.12887535,0.172899529 C7.12887535,0.108529007 7.10650737,0.0516273143 7.07586207,0 L8.51214858,0 L8.51214858,0.345799058 L8.52088788,0.345799058 C8.6116688,2.0767193 10.0442594,3.45814458 11.7973551,3.45814458 C13.5504509,3.45814458 14.9830415,2.0767193 15.0738224,0.345799058 L15.0825617,0.345799058 L15.0825617,0 L16.4291838,0 L16.5075295,0.0167856145 Z" id="Path-Copy-7" stroke="#FFFFFF" stroke-width="0.5" fill="#3B5D99"></path>
            <path d="M8.56551724,1.11724138 L14.7514072,1.11724138 C14.644163,2.57054775 13.2999251,3.72413793 11.6584622,3.72413793 C10.0169994,3.72413793 8.67271538,2.57054775 8.56551724,1.11724138 Z" id="Path-Copy-8" fill="#FFFFFF"></path>
            <path d="M9.69156933,15.8896552 L9.69156933,8.09452824 L6.95172414,8.09452824 L6.95172414,9.47391284 L8.0544834,9.47391284 L8.0544834,15.8896552 L9.69156933,15.8896552 Z M13.8132225,15.8682694 C14.9121922,15.8682694 15.698524,15.5154035 16.1722179,14.8096719 C16.6459117,14.1039402 16.8827586,13.130886 16.8827586,11.8905091 C16.8827586,10.6572609 16.6459117,9.69133522 16.1722179,8.99273217 C15.698524,8.29412911 14.9121922,7.94482759 13.8132225,7.94482759 C12.7142528,7.94482759 11.927921,8.29412911 11.4542272,8.99273217 C10.9805333,9.69133522 10.7436864,10.6572609 10.7436864,11.8905091 C10.7436864,13.130886 10.9805333,14.1039402 11.4542272,14.8096719 C11.927921,15.5154035 12.7142528,15.8682694 13.8132225,15.8682694 Z M13.8132225,14.4781919 C13.3887928,14.4781919 13.066681,14.3659164 12.8468871,14.1413654 C12.6270931,13.9168144 12.4830902,13.6209774 12.4148783,13.2538544 C12.3466664,12.8867313 12.3125604,12.4322829 12.3125604,11.8905091 C12.3125604,11.3629925 12.3485612,10.919237 12.4205626,10.5592426 C12.4925641,10.1992482 12.636567,9.9051933 12.8525714,9.67707802 C13.0685758,9.44896273 13.3887928,9.33490509 13.8132225,9.33490509 C14.2376522,9.33490509 14.5578692,9.44896273 14.7738736,9.67707802 C14.989878,9.9051933 15.133881,10.1992482 15.2058824,10.5592426 C15.2778839,10.919237 15.3138846,11.3629925 15.3138846,11.8905091 C15.3138846,12.4322829 15.2797787,12.8867313 15.2115667,13.2538544 C15.1433548,13.6209774 14.9993519,13.9168144 14.779558,14.1413654 C14.559764,14.3659164 14.2376522,14.4781919 13.8132225,14.4781919 Z" id="10-copy" fill="#FFFFFF"></path>
        </g>
    </g>
</svg>