<?xml version="1.0" encoding="UTF-8"?>
<svg width="24px" height="24px" viewBox="0 0 24 24" version="1.1" xmlns="http://www.w3.org/2000/svg" xmlns:xlink="http://www.w3.org/1999/xlink">
    <!-- Generator: Sketch 61.2 (89653) - https://sketch.com -->
    <title>Tactics</title>
    <desc>Created with Sketch.</desc>
    <g id="Tactics" stroke="none" stroke-width="1" fill="none" fill-rule="evenodd">
        <g id="Group-3-Copy-4" transform="translate(2.000000, 1.000000)">
            <path d="M6.27554925,0 L6.27347043,2.70457661 C6.27349982,3.00509934 6.51176243,3.24871364 6.80568331,3.24874369 L6.80568331,3.24874369 L13.1943167,3.24874369 C13.4882376,3.24871364 13.7265002,3.00509934 13.7265296,2.70457661 L13.7265296,2.70457661 L13.7265296,0 L18.4054402,0 C19.2807542,0 20,0.736467835 20,1.63143843 L20,1.63143843 L20,20 C20,21.1164237 19.2807542,21.8571429 18,22 L18,22 L2,22 C0.723403816,21.8571429 -2.41153898e-14,21.1164237 -2.41153898e-14,20 L-2.41153898e-14,20 L-2.41153898e-14,1.63143843 C-2.41153898e-14,0.736467835 0.723403816,0 1.59871753,0 L1.59871753,0 L6.27554925,0 Z M12.9756231,14.7100754 C12.9537593,14.7101803 12.9319155,14.7114446 12.9101798,14.7138633 C12.665296,14.7387339 12.4567741,14.9066242 12.3757028,15.1441946 C12.2946314,15.381765 12.3557418,15.6458476 12.5323391,15.8210832 L12.5323391,15.8210832 L13.3509945,16.6581266 L12.5323391,17.4951701 C12.3676692,17.6577761 12.3018276,17.8986924 12.360202,18.1250248 C12.4185765,18.3513572 12.5920475,18.5277474 12.8137269,18.5861817 C13.0354064,18.644616 13.2706629,18.5759657 13.4287847,18.4067013 L13.4287847,18.4067013 L14.2449707,17.5721827 L15.0611567,18.4067013 C15.2192785,18.5759657 15.454535,18.644616 15.6762145,18.5861817 C15.8978939,18.5277474 16.0713649,18.3513572 16.1297393,18.1250248 C16.1881138,17.8986924 16.1222722,17.6577761 15.9576023,17.4951701 L15.9576023,17.4951701 L15.1389469,16.6581266 L15.9576023,15.8210832 C16.1430958,15.6346516 16.1979982,15.3510918 16.0959664,15.1064611 C15.9939345,14.8618304 15.7557892,14.7060488 15.4957972,14.7138633 C15.3315514,14.7188672 15.1756626,14.7890531 15.0611567,14.909552 L15.0611567,14.909552 L14.2449707,15.7440705 L13.4287847,14.909552 C13.3103833,14.7830577 13.1468639,14.7110784 12.9756231,14.7100754 Z M9.18610083,14.718913 C8.14611385,14.718913 7.29195704,15.5972908 7.29195704,16.6606515 C7.29195704,17.7239882 8.14611385,18.5973402 9.18610083,18.5973402 C10.2260878,18.5973402 11.0851834,17.7239882 11.0851834,16.6606515 C11.0851834,15.5972908 10.2260878,14.718913 9.18610083,14.718913 Z M12.9719184,5.66666667 C12.9512706,5.66737116 12.9306696,5.66905957 12.9101798,5.67177446 C12.7672574,5.68790872 12.6339818,5.75337076 12.5323391,5.85736367 L12.5323391,5.85736367 L10.0022862,8.44424422 C9.37926014,9.05517149 10.3020857,9.99742632 10.8987324,9.35956273 L10.8987324,9.35956273 L12.3508269,7.87485233 L12.3508269,11.4982529 C12.3508269,11.8675528 12.0760854,12.1421326 11.7149184,12.1421326 L11.7149184,12.1421326 L6.65604856,12.1320325 C5.61626262,12.1320435 4.76190476,13.0106301 4.76190476,14.0737709 L4.76190476,14.0737709 L4.76190476,17.9484108 C4.78019444,18.7913728 6.00802135,18.7913728 6.02631355,17.9484108 L6.02631355,17.9484108 L6.02631355,14.0737709 C6.02631355,13.7044962 6.29488157,13.4248416 6.65604856,13.4248416 L6.65604856,13.4248416 L11.7149184,13.4349416 C12.7547062,13.4349416 13.6152357,12.5613938 13.6152357,11.4982529 L13.6152357,11.4982529 L13.6152357,7.87990268 L15.0611567,9.35956273 C15.6578027,9.99744636 16.5806505,9.05517084 15.9576023,8.44424422 L15.9576023,8.44424422 L13.4287847,5.85736367 C13.3080349,5.73317126 13.143175,5.66437895 12.9719184,5.66666667 Z M9.18610083,16.0117221 C9.54274756,16.0117221 9.82077462,16.295994 9.82077462,16.6606515 C9.82077462,17.0253096 9.54274756,17.3045312 9.18610083,17.3045312 C8.8294541,17.3045312 8.55636583,17.0253096 8.55636583,16.6606515 C8.55636583,16.295994 8.8294541,16.0117221 9.18610083,16.0117221 Z M6.65604856,5.67177446 C5.61606158,5.67177446 4.76190476,6.54512646 4.76190476,7.6084632 C4.76190476,8.67179995 5.61606158,9.54641437 6.65604856,9.54641437 C7.6960349,9.54641437 8.55636583,8.67179995 8.55636583,7.6084632 C8.55636583,6.54512646 7.6960349,5.67177446 6.65604856,5.67177446 Z M6.65604856,6.96458353 C7.01269529,6.96458353 7.29195704,7.24380572 7.29195704,7.6084632 C7.29195704,7.97312068 7.01269529,8.25234288 6.65604856,8.25234288 C6.29940119,8.25234288 6.02631355,7.97312068 6.02631355,7.6084632 C6.02631355,7.24380572 6.29940119,6.96458353 6.65604856,6.96458353 Z" id="Combined-Shape" fill="#3B5D99"></path>
            <path d="M7.33997502,-1.75309502e-13 L7.33997502,2.17666832 C7.33997502,2.17666832 12.6621039,2.17666832 12.6621039,2.17666832 L12.6621039,-1.75309502e-13 L7.33997502,-1.75309502e-13 Z" id="Path" fill="#3B5D99"></path>
            <g id="Group-2" transform="translate(4.761905, 6.666667)"></g>
        </g>
    </g>
</svg>