<?xml version="1.0" encoding="UTF-8"?>
<svg width="24px" height="24px" viewBox="0 0 24 24" version="1.1" xmlns="http://www.w3.org/2000/svg" xmlns:xlink="http://www.w3.org/1999/xlink">
    <!-- Generator: Sketch 61.2 (89653) - https://sketch.com -->
    <title>Items</title>
    <desc>Created with Sketch.</desc>
    <g id="Items" stroke="none" stroke-width="1" fill="none" fill-rule="evenodd">
        <g id="Group-Copy-2" transform="translate(1.000000, 0.000000)" fill="#3B5D99">
            <rect id="Rectangle" x="0" y="0" width="6" height="6" rx="1"></rect>
            <rect id="Rectangle-Copy-10" x="0" y="9" width="6" height="6" rx="1"></rect>
            <rect id="Rectangle-Copy-14" x="0" y="18" width="6" height="6" rx="1"></rect>
            <rect id="Rectangle-Copy-11" x="8" y="1" width="9" height="1" rx="0.5"></rect>
            <rect id="Rectangle-Copy-15" x="8" y="10" width="9" height="1" rx="0.5"></rect>
            <rect id="Rectangle-Copy-18" x="8" y="19" width="9" height="1" rx="0.5"></rect>
            <rect id="Rectangle-Copy-12" x="8" y="3" width="14" height="1" rx="0.5"></rect>
            <rect id="Rectangle-Copy-16" x="8" y="12" width="14" height="1" rx="0.5"></rect>
            <rect id="Rectangle-Copy-19" x="8" y="21" width="14" height="1" rx="0.5"></rect>
            <rect id="Rectangle-Copy-13" x="8" y="5" width="14" height="1" rx="0.5"></rect>
            <rect id="Rectangle-Copy-17" x="8" y="14" width="14" height="1" rx="0.5"></rect>
            <rect id="Rectangle-Copy-20" x="8" y="23" width="14" height="1" rx="0.5"></rect>
        </g>
    </g>
</svg>