<?xml version="1.0" encoding="UTF-8"?>
<svg width="24px" height="24px" viewBox="0 0 24 24" version="1.1" xmlns="http://www.w3.org/2000/svg" xmlns:xlink="http://www.w3.org/1999/xlink">
    <!-- Generator: Sketch 61.2 (89653) - https://sketch.com -->
    <title>Assessment and self-assessment</title>
    <desc>Created with Sketch.</desc>
    <g id="Assessment-and-self-assessment" stroke="none" stroke-width="1" fill="none" fill-rule="evenodd">
        <g id="Group-2-Copy-2" transform="translate(3.000000, 0.000000)">
            <path d="M16.875,2 L10.5,2 L1.125,2 C0.5015625,2 0,2.45976562 0,3.03125 L0,22.96875 C0,23.5402344 0.5015625,24 1.125,24 L16.875,24 C17.4984375,24 18,23.5402344 18,22.96875 L18,8.875 L18,3.03125 C18,2.59888982 17.757564,2 16.875,2 Z" id="Path" fill="#3B5D99" fill-rule="nonzero"></path>
            <path d="M12.4492712,0 L5.55072885,0 C5.24717904,0 5,0.388871522 5,0.867458581 L5,3.13254142 C5,3.61081588 5.24717904,4 5.55072885,4 L12.4492712,4 C12.752821,4 13,3.61112848 13,3.13254142 L13,0.867458581 C13,0.388871522 12.752821,0 12.4492712,0 Z" id="Path-Copy-18" stroke="#F5F8FB" fill="#3B5D99" fill-rule="nonzero"></path>
            <rect id="Rectangle" stroke="#F5F8FB" x="3.5" y="8.5" width="4" height="4" rx="1"></rect>
            <rect id="Rectangle-Copy-30" fill="#FFFFFF" x="10" y="8" width="5" height="1" rx="0.5"></rect>
            <rect id="Rectangle-Copy-34" fill="#FFFFFF" x="3" y="20" width="5" height="1" rx="0.5"></rect>
            <rect id="Rectangle-Copy-31" fill="#FFFFFF" x="10" y="10" width="5" height="1" rx="0.5"></rect>
            <rect id="Rectangle-Copy-35" fill="#FFFFFF" x="10" y="12" width="5" height="1" rx="0.5"></rect>
            <rect id="Rectangle-Copy-36" fill="#FFFFFF" x="3" y="14" width="12" height="1" rx="0.5"></rect>
            <rect id="Rectangle-Copy-44" fill="#FFFFFF" x="3" y="16" width="12" height="1" rx="0.5"></rect>
            <rect id="Rectangle-Copy-45" fill="#FFFFFF" x="3" y="18" width="12" height="1" rx="0.5"></rect>
        </g>
    </g>
</svg>