<?xml version="1.0" encoding="UTF-8"?>
<svg width="24px" height="24px" viewBox="0 0 24 24" version="1.1" xmlns="http://www.w3.org/2000/svg" xmlns:xlink="http://www.w3.org/1999/xlink">
    <!-- Generator: Sketch 61.2 (89653) - https://sketch.com -->
    <title>Flexibility hover</title>
    <desc>Created with Sketch.</desc>
    <g id="Flexibility-hover" stroke="none" stroke-width="1" fill="none" fill-rule="evenodd">
        <path d="M1.66612336,16 C1.42592514,16 1.18178428,15.9468212 0.950684486,15.83428 C0.121212122,15.4304922 -0.232716306,14.4216409 0.160638596,13.5744903 C0.383246536,13.0949536 2.44889051,8.86414735 6.29357832,8.13541231 C8.53603487,7.71245536 10.7727291,8.56702627 12.9469475,10.6787192 C14.3835876,12.073426 15.7310632,12.6698324 16.9496445,12.4524795 C18.889427,12.1065081 20.4467728,9.74159751 20.8395211,8.94051457 C21.2516794,8.10047507 22.2525053,7.76006893 23.0774285,8.17962491 C23.9014418,8.59949007 24.2353537,9.6207085 23.823802,10.4610572 C23.7313014,10.6496564 21.5118942,15.0919411 17.5243612,15.8024346 C15.2045681,16.2176621 12.8908406,15.3204244 10.6462611,13.1413304 C9.29332646,11.8279378 8.03683505,11.2677053 6.91196741,11.4776379 C5.05983296,11.8223726 3.58528282,14.1622397 3.1734278,15.034743 C2.88591782,15.6435165 2.28815181,16 1.66612336,16 Z" id="Path-Copy-3" fill="#FF4B00" fill-rule="nonzero"></path>
    </g>
</svg>