<?xml version="1.0" encoding="UTF-8"?>
<svg width="24px" height="24px" viewBox="0 0 24 24" version="1.1" xmlns="http://www.w3.org/2000/svg" xmlns:xlink="http://www.w3.org/1999/xlink">
    <!-- Generator: Sketch 61.2 (89653) - https://sketch.com -->
    <title>Posture</title>
    <desc>Created with Sketch.</desc>
    <g id="Posture" stroke="none" stroke-width="1" fill="none" fill-rule="evenodd">
        <g id="Group-42-Copy-2" transform="translate(6.000000, 0.000000)" fill="#3B5D99" fill-rule="nonzero">
            <circle id="Oval" transform="translate(5.691567, 2.766672) rotate(-2.565594) translate(-5.691567, -2.766672) " cx="5.69156672" cy="2.76667244" r="2.43333911"></circle>
            <path d="M11.3242403,12.0666924 L9.09090693,7.20002577 C8.69090693,6.33335911 7.79090693,5.76669244 6.82424026,5.76669244 L4.59090693,5.76669244 C3.62424026,5.76669244 2.72424026,6.33335911 2.32424026,7.20002577 L0.0909069287,12.0666924 C-0.142426405,12.5666924 0.0909069287,13.1666924 0.590906929,13.4000258 C1.09090693,13.6333591 1.69090693,13.4000258 1.92424026,12.9000258 L3.52424026,9.40002577 L3.52424026,13.1666924 L2.3575736,22.3333591 C2.29090693,22.9666924 2.72424026,23.5666924 3.3575736,23.6333591 C3.39090693,23.6333591 3.4575736,23.6333591 3.49090693,23.6333591 C4.0575736,23.6333591 4.5575736,23.2000258 4.62424026,22.6333591 L5.69090693,14.3000258 L6.7575736,22.6666924 C6.82424026,23.2666924 7.32424026,23.6666924 7.92424026,23.6666924 C7.9575736,23.6666924 8.02424026,23.6666924 8.0575736,23.6666924 C8.69090693,23.6000258 9.1575736,23.0000258 9.0575736,22.3666924 L7.89090693,13.2000258 L7.89090693,9.43335911 L9.49090693,12.9333591 C9.6575736,13.3000258 10.0242403,13.5000258 10.3909069,13.5000258 C10.5242403,13.5000258 10.6909069,13.4666924 10.8242403,13.4000258 C11.3242403,13.1666924 11.5575736,12.5666924 11.3242403,12.0666924 Z" id="Path"></path>
        </g>
    </g>
</svg>