<?xml version="1.0" encoding="UTF-8"?>
<svg width="24px" height="24px" viewBox="0 0 24 24" version="1.1" xmlns="http://www.w3.org/2000/svg" xmlns:xlink="http://www.w3.org/1999/xlink">
    <!-- Generator: Sketch 61.2 (89653) - https://sketch.com -->
    <title>Power hover</title>
    <desc>Created with Sketch.</desc>
    <g id="Power-hover" stroke="none" stroke-width="1" fill="none" fill-rule="evenodd">
        <g id="Group-3-Copy-2" transform="translate(0.000000, 4.000000)" fill="#FF4B00" fill-rule="nonzero">
            <rect id="Rectangle" x="8.50526316" y="6.61052632" width="6.94736842" height="2.52631579"></rect>
            <path d="M21.9789474,6.61052632 L21.9789474,5.13684211 C21.9789474,4.33684211 21.3052632,3.66315789 20.5052632,3.66315789 C20.2105263,3.66315789 19.9157895,3.74736842 19.6631579,3.91578947 L19.6631579,6.61052632 L19.6631579,9.13684211 L19.6631579,11.8315789 C19.9157895,12 20.2105263,12.0842105 20.5052632,12.0842105 C21.3052632,12.0842105 21.9789474,11.4105263 21.9789474,10.6105263 L21.9789474,9.13684211 L22.4842105,9.13684211 C23.1818334,9.13684211 23.7473684,8.57130705 23.7473684,7.87368421 C23.7473684,7.17606137 23.1818334,6.61052632 22.4842105,6.61052632 L21.9789474,6.61052632 L21.9789474,6.61052632 Z" id="Path"></path>
            <path d="M17.5157895,-7.77857311e-14 C16.6736842,-7.77857311e-14 15.9578947,0.673684211 15.9578947,1.55789474 L15.9578947,6.61052632 L15.9578947,9.13684211 L15.9578947,14.1894737 C15.9578947,15.0315789 16.6315789,15.7473684 17.5157895,15.7473684 C18.4,15.7473684 19.0736842,15.0736842 19.0736842,14.1894737 L19.0736842,11.0315789 L19.0736842,9.13684211 L19.0736842,6.61052632 L19.0736842,4.71578947 L19.0736842,1.55789474 C19.0736842,0.715789474 18.4,-7.77857311e-14 17.5157895,-7.77857311e-14 Z" id="Path"></path>
            <path d="M1.76842105,5.13684211 L1.76842105,6.61052632 L1.26315789,6.61052632 C0.565535053,6.61052632 9.63778223e-15,7.17606137 9.72321638e-15,7.87368421 C9.80865054e-15,8.57130705 0.565535053,9.13684211 1.26315789,9.13684211 L1.76842105,9.13684211 L1.76842105,9.13684211 L1.76842105,10.6105263 C1.76842105,11.4105263 2.44210526,12.0842105 3.24210526,12.0842105 C3.53684211,12.0842105 3.83157895,12 4.08421053,11.8315789 L4.08421053,9.13684211 L4.08421053,6.61052632 L4.08421053,3.91578947 C3.83157895,3.74736842 3.53684211,3.66315789 3.24210526,3.66315789 C2.44210526,3.66315789 1.76842105,4.33684211 1.76842105,5.13684211 Z" id="Path"></path>
            <path d="M6.18947368,-7.77857311e-14 C5.34736842,-7.77857311e-14 4.63157895,0.673684211 4.63157895,1.55789474 L4.63157895,4.71578947 L4.63157895,11.0736842 L4.63157895,14.1894737 C4.63157895,15.0315789 5.30526316,15.7473684 6.18947368,15.7473684 C7.07368421,15.7473684 7.74736842,15.0315789 7.74736842,14.1894737 L7.74736842,1.55789474 C7.74736842,0.715789474 7.07368421,-7.77857311e-14 6.18947368,-7.77857311e-14 Z" id="Path"></path>
        </g>
    </g>
</svg>