<?xml version="1.0" encoding="UTF-8"?>
<svg width="24px" height="24px" viewBox="0 0 24 24" version="1.1" xmlns="http://www.w3.org/2000/svg" xmlns:xlink="http://www.w3.org/1999/xlink">
    <!-- Generator: Sketch 61.2 (89653) - https://sketch.com -->
    <title>settings</title>
    <desc>Created with Sketch.</desc>
    <g id="settings" stroke="none" stroke-width="1" fill="none" fill-rule="evenodd">
        <g id="Group-5-Copy" transform="translate(0.000000, 2.000000)" fill="#FFFFFF">
            <g id="Group-2">
                <rect id="Rectangle" x="0" y="0" width="9" height="3" rx="1.5"></rect>
                <rect id="Rectangle-Copy-14" x="0" y="17" width="13" height="3" rx="1.5"></rect>
                <g id="Group-3" transform="translate(12.000000, 10.500000) scale(-1, 1) translate(-12.000000, -10.500000) translate(0.000000, 7.000000)">
                    <rect id="Rectangle-Copy-11" x="0" y="2" width="6" height="3" rx="1.5"></rect>
                    <rect id="Rectangle-Copy-12" x="10" y="2" width="14" height="3" rx="1.5"></rect>
                    <path d="M7,2 L7,5 C7,5.82842712 6.32842712,6.5 5.5,6.5 C4.67157288,6.5 4,5.82842712 4,5 L4,2 C4,1.17157288 4.67157288,0.5 5.5,0.5 C6.32842712,0.5 7,1.17157288 7,2 Z" id="Rectangle-Copy-13"></path>
                </g>
                <rect id="Rectangle-Copy-10" x="12" y="0" width="12" height="3" rx="1.5"></rect>
                <rect id="Rectangle-Copy-15" x="16" y="17" width="8" height="3" rx="1.5"></rect>
                <path d="M9,1.5 L9,4.5 C9,5.32842712 8.32842712,6 7.5,6 C6.67157288,6 6,5.32842712 6,4.5 L6,1.5 C6,0.671572875 6.67157288,0 7.5,0 C8.32842712,0 9,0.671572875 9,1.5 Z" id="Rectangle-Copy-9"></path>
                <path d="M13,15.5 L13,18.5 C13,19.3284271 12.3284271,20 11.5,20 C10.6715729,20 10,19.3284271 10,18.5 L10,15.5 C10,14.6715729 10.6715729,14 11.5,14 C12.3284271,14 13,14.6715729 13,15.5 Z" id="Rectangle-Copy-16"></path>
            </g>
        </g>
    </g>
</svg>