<?xml version="1.0" encoding="UTF-8"?>
<svg width="24px" height="24px" viewBox="0 0 24 24" version="1.1" xmlns="http://www.w3.org/2000/svg" xmlns:xlink="http://www.w3.org/1999/xlink">
    <!-- Generator: Sketch 61.2 (89653) - https://sketch.com -->
    <title>sign out</title>
    <desc>Created with Sketch.</desc>
    <g id="sign-out" stroke="none" stroke-width="1" fill="none" fill-rule="evenodd">
        <g id="Group-8-Copy" transform="translate(1.000000, 0.000000)" fill="#FFFFFF" fill-rule="nonzero">
            <g id="Group-7">
                <path d="M9.48204159,1.49716446 C9.48204159,0.670230624 10.1522722,-4.70734562e-14 10.979206,-4.70734562e-14 C11.8061399,-4.70734562e-14 12.4763705,0.670230624 12.4763705,1.49716446 L12.4763705,7.48582231 C12.4763705,8.31275614 11.8061399,8.98298677 10.979206,8.98298677 C10.1522722,8.98298677 9.48204159,8.31275614 9.48204159,7.48582231 L9.48204159,1.49716446 Z" id="Path-Copy-4"></path>
                <path d="M10.979206,23.9565217 C4.91568998,23.9565217 0,19.0408318 0,12.9773157 C0,9.11862382 1.99072968,5.72505104 5.00102836,3.76675992 C5.2645293,3.53519849 5.61037429,3.4952741 5.98865784,3.4952741 C6.81559168,3.4952741 7.48582231,4.16550473 7.48582231,4.99243856 C7.48582231,5.37920605 7.33910019,5.73203781 7.09805671,5.99753497 C4.65019282,7.3614518 2.99432892,9.976 2.99432892,12.9773157 C2.99432892,17.3874631 6.5690586,20.9621928 10.979206,20.9621928 C15.3893535,20.9621928 18.9640832,17.3874631 18.9640832,12.9773157 C18.9640832,9.976 17.3082193,7.3614518 14.8603554,5.99753497 C14.6193119,5.73203781 14.4725898,5.37920605 14.4725898,4.99243856 C14.4725898,4.16550473 15.1428204,3.4952741 15.9697543,3.4952741 C16.3575198,3.4952741 16.7108507,3.53769376 16.9768469,3.77973535 C19.9761664,5.73952363 21.9584121,9.12710775 21.9584121,12.9773157 C21.9584121,19.0408318 17.0427221,23.9565217 10.979206,23.9565217 Z" id="Path-Copy-5"></path>
            </g>
        </g>
    </g>
</svg>