<?xml version="1.0" encoding="UTF-8"?>
<svg width="24px" height="24px" viewBox="0 0 24 24" version="1.1" xmlns="http://www.w3.org/2000/svg" xmlns:xlink="http://www.w3.org/1999/xlink">
    <!-- Generator: Sketch 61.2 (89653) - https://sketch.com -->
    <title>Finance hover</title>
    <desc>Created with Sketch.</desc>
    <g id="Finance-hover" stroke="none" stroke-width="1" fill="none" fill-rule="evenodd">
        <path d="M20.5,1 L3.5,1 C1.57491469,1.01865267 0.0189677316,2.54875464 0,4.44186316 L0,17.2259263 C0.0722983139,19.1572848 1.41076595,20.8191013 3.30599976,21.330594 L14.464999,23.9080578 C15.325256,24.1270573 16.2400971,23.9501669 16.9519988,23.4271804 C17.6408558,22.8726233 18.0281877,22.0345019 18,21.1594842 L18,11.6284734 C17.9966845,9.7489929 16.7220341,8.10126619 14.8809989,7.5965766 L4.05599971,4.66115902 C3.7976967,4.59089278 3.59713466,4.39045005 3.52986336,4.13533567 C3.46259207,3.88022129 3.53883163,3.6091932 3.72986335,3.42434507 C3.92089507,3.23949693 4.19769668,3.16891158 4.45599968,3.23917783 L7.98999943,4.19798257 L8.00199943,4.19798257 L20.5,4.19798257 C20.9142121,4.19798257 21.2499985,4.52819142 21.2499985,4.93552468 C21.2499985,5.34285794 20.9142121,5.67306679 20.5,5.67306679 L15.2649989,5.67306679 C15.13979,5.6728075 15.0336967,5.76367539 15.016768,5.88567425 C14.9998393,6.0076731 15.0772969,6.12317161 15.1979989,6.15591102 L15.2839989,6.17951237 C16.4232049,6.49064474 17.4363511,7.14134307 18.1839987,8.04205203 C18.2320791,8.09855877 18.3030757,8.13130814 18.3779987,8.13154047 L20.5,8.13154047 C20.9142121,8.13154047 21.2499985,8.46174932 21.2499985,8.86908258 C21.2499985,9.27641584 20.9142121,9.60662469 20.5,9.60662469 L19.4619986,9.60662469 C19.381827,9.60613904 19.306322,9.6436449 19.2591428,9.70738997 C19.2119636,9.77113504 19.1988826,9.85332019 19.2239986,9.92819304 C19.4078437,10.4776108 19.502669,11.0520458 19.5049986,11.6304402 L19.5049986,18.45713 C19.5049986,18.5929077 19.6169274,18.7029773 19.7549986,18.7029773 L20.5,18.7029773 C22.432995,18.7029773 24,17.1620027 24,15.2611142 L24,4.44382994 C24.0005289,3.53065036 23.6320143,2.65469364 22.9755795,2.00879364 C22.3191447,1.36289365 21.4286028,1 20.5,1 Z M15.4999992,15.7508421 C15.4999992,16.8370641 14.6045685,17.7176211 13.4999992,17.7176211 C12.3954296,17.7176211 11.4999992,16.8370641 11.4999992,15.7508421 C11.4999992,14.6646201 12.3954296,13.7840632 13.4999992,13.7840632 C14.6045685,13.7840632 15.4999992,14.6646201 15.4999992,15.7508421 Z" id="Shape-Copy-5" fill="#FF4B00" fill-rule="nonzero"></path>
    </g>
</svg>