<?xml version="1.0" encoding="UTF-8"?>
<svg width="24px" height="24px" viewBox="0 0 24 24" version="1.1" xmlns="http://www.w3.org/2000/svg" xmlns:xlink="http://www.w3.org/1999/xlink">
    <!-- Generator: Sketch 61.2 (89653) - https://sketch.com -->
    <title>Guardian angel</title>
    <desc>Created with Sketch.</desc>
    <g id="Guardian-angel" stroke="none" stroke-width="1" fill="none" fill-rule="evenodd">
        <g id="Group" transform="translate(2.000000, 1.000000)" fill-rule="nonzero">
            <g id="2542060_protection_safety_security_shield_icon-copy-2" fill="#3B5D99">
                <path d="M19.9952425,5.7031897 C20.1761972,12.1221397 16.4047477,16.8777671 14.1381055,19.1430379 C12.4952434,20.783364 11.210579,22.023971 10.0047475,22.0285703 L10.00001,22.0285703 C8.75005477,22.023971 7.50474748,20.783364 5.86668014,19.1430379 C3.60000838,16.8777671 -0.176178143,12.1221397 0.00474747619,5.7031897 C0.0142805714,5.49641719 0.166665048,5.31721246 0.37619,5.27127552 L0.742865952,5.18854409 C3.88571124,4.51771835 4.6238009,3.06116829 5.55237814,1.218641 C5.70952914,0.910767898 5.86668014,0.593724175 6.04286829,0.272109204 C6.12381252,0.125071613 6.285701,0.0285702857 6.46191824,0.0285702857 L13.5381008,0.0285702857 C13.714289,0.0285702857 13.8761774,0.125071613 13.9571508,0.272109204 C14.1333389,0.593724175 14.2904609,0.910767852 14.4476119,1.218641 C15.3809557,3.06116829 16.1142785,4.51771835 19.2571531,5.18854409 L19.6238,5.27127552 C19.8380915,5.31721246 19.990476,5.49641719 19.9952425,5.7031897 Z" id="Path"></path>
            </g>
            <g id="noun_wing_229906-copy-3" transform="translate(6.666667, 6.666667)" fill="#F5F8FB">
                <path d="M0.640903541,0.694017094 L6.10561661,3.84908425 C6.92796093,4.33968254 7.47509158,5.3009768 6.63968254,6.5982906 C6.14932845,7.35970696 6.26117216,8.0026862 6.43699634,8.84273504 C6.45152625,8.91245421 6.37728938,8.95567766 6.3025641,8.95567766 C6.27142857,8.95567766 6.24017094,8.94810745 6.21538462,8.93199023 L2.44566545,6.47203907 C1.99291819,6.21062271 1.83785104,5.63174603 2.0992674,5.17912088 C2.0992674,5.17912088 3.4010989,5.93076923 3.98119658,6.26605617 C4.03089133,6.29474969 4.08510379,6.30842491 4.13858364,6.30842491 C4.24786325,6.30842491 4.35433455,6.25140415 4.41330891,6.14908425 L4.41733822,6.14224664 C4.5020757,5.9956044 4.45177045,5.80805861 4.30500611,5.72332112 L1.7014652,4.22063492 C1.24871795,3.95934066 1.09352869,3.38046398 1.35494505,2.92783883 L4.77045177,4.8997558 C4.82014652,4.92844933 4.87435897,4.94212454 4.92796093,4.94212454 C5.03699634,4.94212454 5.14310134,4.88559219 5.2014652,4.78437118 L5.2014652,4.78437118 C5.28864469,4.63345543 5.23687424,4.44053724 5.08595849,4.35335775 L0.987423687,1.98705739 C0.534676435,1.72551893 0.379487179,1.14664225 0.640903541,0.694017094 L0.640903541,0.694017094" id="Shape"></path>
            </g>
        </g>
    </g>
</svg>