<?xml version="1.0" encoding="UTF-8"?>
<svg width="24px" height="24px" viewBox="0 0 24 24" version="1.1" xmlns="http://www.w3.org/2000/svg" xmlns:xlink="http://www.w3.org/1999/xlink">
    <!-- Generator: Sketch 61.2 (89653) - https://sketch.com -->
    <title>Intelligence</title>
    <desc>Created with Sketch.</desc>
    <g id="Intelligence" stroke="none" stroke-width="1" fill="none" fill-rule="evenodd">
        <path d="M23.4617745,12.7740415 C23.4573018,12.763634 23.4498471,12.7549611 23.4394106,12.7492617 C22.9026761,12.4469478 22.3333896,12.2935607 21.7474544,12.2935607 C20.9771409,12.2935607 20.2021062,12.5641564 19.4444657,13.0974183 C19.3828406,13.1405352 19.3110275,13.1633326 19.2362326,13.1633326 C19.1184491,13.1633326 19.0081204,13.106339 18.9405316,13.0106889 C18.82573,12.848381 18.8644942,12.6231324 19.027751,12.5084018 C19.9354784,11.86933 20.7733806,11.5588388 21.5889189,11.5588388 C21.987494,11.5588388 22.3925298,11.6329305 22.8283781,11.7860698 C22.8490026,11.7932559 22.872112,11.7865654 22.8855304,11.7694673 C22.8996942,11.7521214 23.2257107,11.3286342 23.0500296,10.2980411 C22.9722528,9.92783048 22.8296205,9.62551658 22.6278481,9.40225033 C22.2210729,8.8875733 21.8085825,8.77953325 21.534003,8.77953325 C21.3635401,8.77953325 21.2556962,8.82190676 21.250975,8.82364134 C21.2410354,8.82760612 21.2325868,8.83454447 21.2268716,8.8439608 C20.8322723,9.46271311 20.3743086,9.87827083 19.5376488,10.3775844 C19.4812419,10.4110371 19.4173805,10.4286308 19.3522766,10.4286308 C19.2255476,10.4286308 19.1070187,10.3614775 19.0419148,10.2531896 C18.9395376,10.0827044 18.9954475,9.86092495 19.1664074,9.75883206 C20.1762634,9.15618664 20.5778204,8.75995718 20.8208419,8.1236112 C20.943595,7.67460071 20.7922657,7.06898171 20.4699765,6.71710815 L20.4053696,6.6380605 C20.0388495,6.18830662 19.3577433,5.35099623 17.63572,4.91115428 C17.3966744,4.83532801 17.1526589,4.79691927 16.9101344,4.79691927 C16.2084037,4.79691927 15.7506885,5.11187089 15.7315549,5.125252 C15.7126698,5.1383853 15.7049666,5.16242174 15.7121728,5.18398019 C15.780507,5.3842012 15.9887402,5.99328937 15.7767797,6.67523024 C15.7298154,6.82713059 15.5906621,6.92897568 15.4316296,6.92897568 C15.3953503,6.92897568 15.3593195,6.92377192 15.3242827,6.9128688 C15.1341892,6.85389281 15.0273393,6.65168941 15.0864795,6.46187592 C15.2268753,6.01013966 15.1968082,5.61118442 14.9947873,5.24270838 C14.7306444,4.76049293 14.3643727,4.43587718 13.8773359,4.25077186 C13.4124144,4.05352443 12.6756469,4.00966413 12.378455,4 C10.4638533,4.01040753 9.09890761,4.13331548 7.37141758,4.7495898 C7.15026308,4.8214513 6.97781226,4.9659177 6.88562314,5.15597898 C6.7767853,5.38097982 6.77927018,5.66148748 6.89332627,5.96702276 C6.8948172,5.97073973 6.89879301,5.98312965 6.90575068,6.00295351 C7.03943734,6.392988 7.17014214,6.74287918 7.29438624,7.04345849 C7.33116249,7.13241807 7.33116249,7.23029839 7.29413775,7.31925798 C7.25711301,7.40796976 7.18753631,7.47735328 7.09832904,7.51402743 C7.05409814,7.5321167 7.00787934,7.54128524 6.96066658,7.54128524 C6.814804,7.54128524 6.68360222,7.45356465 6.62620145,7.31801899 C6.52258186,7.0714597 6.19979568,6.26487629 6.19681382,6.25744234 C6.19085011,6.24158325 6.04126021,5.86740785 5.55944157,5.86740785 C5.19764274,5.86740785 4.74862455,6.08224896 4.22605384,6.50548842 C3.53103232,7.0424673 3.17619116,7.52889532 3.1712214,7.9508958 C3.16774256,8.24850153 3.34590861,8.39594151 3.35833302,8.40560564 C3.50171072,8.49679541 4.28072125,9.0890333 4.6062408,9.45057099 C4.74241234,9.60148015 4.73793955,9.82598539 4.59605279,9.96128325 C4.52846399,10.0257108 4.4397537,10.061146 4.34632214,10.061146 C4.24667836,10.061146 4.15399226,10.0214982 4.08516103,9.94988453 C3.27707738,9.10811377 2.61460781,8.69850321 2.05948515,8.69850321 C1.98145986,8.69850321 1.90492549,8.70692835 1.83186996,8.72353084 C1.61643068,8.7728427 1.26705626,9.02039318 1.05683523,9.34649572 C0.315594908,10.3069619 0.0735673929,11.0605164 0.00523313562,12.3500587 C-0.036015907,13.1219503 0.172962676,13.8752571 0.407535545,14.2025986 C0.737279397,14.6625122 1.07075057,14.9229482 1.19723107,15.014138 C1.19723107,15.014138 1.29886275,15.0785656 1.33762691,15.0483342 C1.66761925,14.7898806 2.04556981,14.6540871 2.5094973,14.6540871 C2.78705863,14.6540871 3.10089924,14.7006732 3.44232203,14.7928541 C3.53277174,14.8173862 3.60831216,14.8763622 3.65477945,14.9591268 C3.70248919,15.0438738 3.71416813,15.1462145 3.68658594,15.2396344 C3.64185807,15.3922782 3.49947432,15.4988314 3.3396964,15.4988314 C3.30540503,15.4988314 3.27136215,15.4936277 3.23831321,15.4842113 C2.99976453,15.4148278 2.7771191,15.3853398 2.5768376,15.3793927 C2.37953797,15.3741889 2.01972704,15.3927738 1.85671878,15.5763923 C1.84926413,15.5848174 1.84255495,15.5932426 1.84007007,15.6038979 C1.83783367,15.6140576 1.799318,16.4912636 3.05145008,16.9387873 C4.10305218,17.3144495 4.64972624,17.3268394 6.93507229,17.3268394 C7.2720223,17.3268394 7.64276671,17.3233702 8.10122745,17.3156884 C8.21677447,17.3124671 8.3805282,17.2557213 8.48489325,17.1350435 C8.56440947,17.0433581 8.59845236,16.9283797 8.58329458,16.8081976 C8.58205214,16.6146671 8.61211921,16.4379869 8.67871405,16.2521382 C8.95254805,15.4869371 9.50394339,14.9873758 10.4668352,14.6312897 C10.5075873,14.616174 10.5495818,14.6084922 10.5925702,14.6084922 C10.7429056,14.6084922 10.8788286,14.7031512 10.9312597,14.8439006 C10.9648056,14.9340992 10.9613267,15.0319795 10.9208232,15.1194523 C10.8805681,15.2071729 10.808755,15.2735828 10.7183053,15.3072834 C9.9820347,15.5796137 9.52854372,15.968657 9.37000824,16.4635102 C9.10288342,17.2985904 9.72112208,18.215444 9.72857673,18.222878 C11.5686319,20.0211501 15.1436318,20.0724443 15.3232887,19.5733786 C15.4746181,19.2029202 15.5787346,18.6148948 15.2137054,17.9163515 C14.6419341,16.8225699 12.7022351,16.7546731 12.6826046,16.7536819 C12.4835655,16.7482304 12.3257755,16.5819577 12.3314907,16.3839669 C12.336709,16.1906842 12.4992203,16.0333323 12.7014897,16.0333323 C12.7986485,16.0360581 15.0847401,16.1108932 15.854308,17.5833106 C16.2722652,18.38246 16.2133735,19.0936411 16.0901234,19.5508289 C16.0605533,19.6734891 16.0829172,19.7973882 16.1497605,19.882383 C16.1925005,19.9359075 16.2722652,19.9999607 16.4139035,19.9999607 C16.4139035,19.9999607 17.6801994,20.0080168 18.7149043,19.7934235 C18.8548032,19.7646789 19.3858757,19.6592193 19.9751299,19.4337229 C20.1356533,19.3484803 20.565396,19.166246 20.7246769,19.0554802 C20.9115401,18.9063056 20.9672014,18.7214481 20.9808683,18.592593 C21.0002503,18.4082311 20.9468254,18.212966 20.8412179,18.0841109 L20.0788561,17.1050599 L20.0699105,17.0953958 C19.9111265,16.8941836 19.7033904,16.8520579 19.5567823,16.8520579 C19.4317928,16.8520579 19.3338884,16.8820415 19.2814574,16.9018653 C19.0135871,17.0366676 18.7313045,17.1471856 18.4438037,17.230198 C18.2544556,17.2844659 18.0499499,17.1697353 17.9962764,16.9838865 C17.9696882,16.8914578 17.9803732,16.7940731 18.0268404,16.7098216 C18.0735562,16.6255702 18.1500906,16.5646119 18.2430252,16.5380974 C18.8990341,16.3490273 20.0825834,15.8271642 20.6436698,14.4560963 C20.6990826,14.3198072 20.8305329,14.2318388 20.9786319,14.2318388 C21.0253477,14.2318388 21.0710695,14.2407596 21.1145549,14.258601 C21.2991817,14.3334361 21.3883889,14.5443125 21.3128485,14.7284266 C21.1329431,15.1682685 20.8864427,15.5664804 20.5758325,15.9188495 C20.4341942,16.1468239 20.4525823,16.3829757 20.6339787,16.6429161 L21.1319491,17.2881828 C21.1386583,17.2973514 21.1478523,17.3037941 21.1585373,17.3065199 C21.1667374,17.3089979 21.3613037,17.3637613 21.6391135,17.3637613 C22.0133368,17.3637613 22.5428651,17.2624118 22.9392038,16.778214 C23.9078109,15.6232262 23.9550236,14.6238557 23.9890665,13.8940898 C23.9927938,13.8214849 23.9957757,13.7508624 24,13.6755317 C23.95726,13.1410308 23.6148433,12.8696917 23.4617745,12.7740415 Z M8.62479211,12.2952953 C8.15887672,12.7544655 7.64475461,13.0924623 7.09733509,13.3003651 C7.09112289,13.3025953 7.08590463,13.3060645 7.08143185,13.3105248 C6.8294648,13.4470617 6.74149998,13.6353884 6.78846425,13.9391891 L6.9959519,15.1169743 C7.01458852,15.2113854 6.99520644,15.3075312 6.9412845,15.3873222 C6.88736255,15.4671133 6.80585842,15.5216289 6.71093593,15.539966 C6.51587268,15.5783747 6.32428827,15.4472894 6.28651807,15.2559891 L6.0603938,13.9847839 C5.99131408,13.7176574 5.73412878,13.5764124 5.56739319,13.5575797 C5.56068401,13.5538627 5.55273239,13.5516325 5.54428379,13.5513848 C3.74796253,13.4867094 2.31020976,12.3294914 2.29579744,12.3178449 C2.22125098,12.2566387 2.17478368,12.1704049 2.16509264,12.0747548 C2.15565009,11.9791047 2.18422623,11.8851891 2.24510585,11.8108496 C2.31393708,11.726846 2.41606573,11.6787731 2.52490357,11.6787731 C2.60765014,11.6787731 2.68890579,11.7075177 2.75326423,11.760051 C2.80768315,11.8041591 4.10379764,12.8406993 5.65933383,12.8406993 C6.57724927,12.8406993 7.40421803,12.4846132 8.1171307,11.7828484 C8.25429619,11.6475506 8.49234789,11.6487895 8.62802245,11.7860698 C8.69585973,11.8544621 8.73288448,11.9454041 8.73215005,12.0415498 C8.73189053,12.1374478 8.69362334,12.2276463 8.62479211,12.2952953 Z M9.101144,9.79278042 C7.9717651,9.79278042 7.16392993,10.4895892 7.12988705,10.5190772 C7.06378918,10.5768142 6.97930319,10.6087802 6.89158685,10.6087802 C6.78747029,10.6087802 6.6883235,10.5641765 6.61998924,10.4863678 C6.55637626,10.4140107 6.52456977,10.3213342 6.53103046,10.2251884 C6.53699418,10.1292905 6.58047962,10.0413221 6.65303817,9.97788574 C7.1477782,9.54423875 8.05326923,9.08110376 9.11033807,9.08110376 C9.87195443,9.08110376 10.6002734,9.32196369 11.2751673,9.79724079 C11.3539381,9.85274761 11.4063691,9.93551223 11.4227693,10.030419 C11.4391696,10.1250779 11.4175511,10.2207281 11.3618897,10.2992801 C11.2943009,10.3949302 11.1837237,10.4519238 11.0664372,10.4519238 C10.9916423,10.4519238 10.9198292,10.4291264 10.8584526,10.3857617 C10.2996026,9.99225804 9.7082007,9.79278042 9.101144,9.79278042 Z M17.4635177,14.9008942 C17.4013956,14.9747381 17.3141763,15.0198374 17.2182598,15.0282625 C15.6619782,15.1643038 14.5025322,14.8223421 13.7973227,14.0172455 C13.6872424,13.8918596 13.5863562,13.751358 13.4978944,13.5997054 C13.4959065,13.5959884 13.4929246,13.5925193 13.4901912,13.5892979 C13.3965112,13.4953823 13.2682913,13.4450793 13.1087618,13.4393799 C13.052355,13.4373975 12.9927178,13.4408667 12.9263715,13.4502831 C12.9191653,13.4487963 12.4691532,13.54742 12.0273411,13.5327999 C11.0314004,13.5000905 10.3910463,13.0344775 10.3644581,13.0149015 C10.2039347,12.8969495 10.1698918,12.6709575 10.2881722,12.5108798 C10.3587428,12.4149818 10.4725504,12.3602184 10.5918248,12.3646788 C10.6641348,12.3671568 10.7332146,12.3909454 10.7921063,12.4338145 C10.8122338,12.4481868 11.293307,12.7666076 12.0467232,12.8112113 C12.4110069,12.8327697 12.768333,12.7180391 12.8118184,12.6997021 C13.0903737,12.5829891 13.0799372,12.2749758 13.0662703,12.1557848 C13.0071302,11.4592239 13.1308773,10.9036601 13.135847,10.8801193 C13.1788355,10.6895624 13.3748927,10.5644243 13.567968,10.6080368 C13.7615404,10.6518971 13.8842935,10.8446841 13.8408081,11.0382146 C13.8373293,11.0538259 13.5083309,12.5963702 14.3442452,13.5464288 C14.8901738,14.1666679 15.8416351,14.4256171 17.1553923,14.3103909 C17.3581587,14.2935406 17.529864,14.4422196 17.5467612,14.6379802 C17.5549613,14.7336304 17.5256397,14.8270503 17.4635177,14.9008942 Z M17.1797441,9.32320268 C16.5326809,9.94195499 16.2138705,10.9262098 16.3684301,11.8311691 C16.3987457,12.0073537 16.2792229,12.1753609 16.1027962,12.2053445 C16.0844081,12.2085659 16.0657715,12.2100527 16.0473834,12.2100527 C15.8885994,12.2100527 15.7464642,12.0978 15.7273306,11.9402003 C15.6085532,10.9732914 15.9223938,10.080722 15.9261211,10.0715535 C15.9469941,10.0207548 15.9497275,9.97664675 15.9338243,9.9404682 C15.9149392,9.89586451 15.8717022,9.87133248 15.8381563,9.85819917 C14.8680583,9.75115031 13.1209377,9.38292206 12.3096237,8.12014202 C12.1846342,7.9365235 11.8576237,8.03068684 11.3280953,8.02994345 C8.94906922,8.02597868 8.61187072,6.50226704 8.59870085,6.43734389 C8.58155516,6.35259688 8.59845236,6.26586748 8.64641058,6.19375818 C8.69436881,6.12140109 8.76742434,6.07208923 8.85265579,6.05499115 C8.87402578,6.05053078 8.89589274,6.04830059 8.91751122,6.04830059 C9.06983449,6.04830059 9.20352114,6.15634064 9.23557612,6.30501961 C9.24576414,6.34863211 9.50667676,7.38046415 11.3335621,7.38046415 C11.4240118,7.38046415 11.5181888,7.37798617 11.6133598,7.37278241 C11.8233323,7.34725918 11.9408672,7.23698895 11.9714313,7.03627234 C12.0014984,6.33425981 12.5317722,5.81239663 12.8403946,5.6149014 C12.8928256,5.58120083 12.9534567,5.56335936 13.0155787,5.56335936 C13.12715,5.56335936 13.2295271,5.61911397 13.2899097,5.71253392 C13.336874,5.78538662 13.3525288,5.87211602 13.3338921,5.95661523 C13.3152555,6.04136224 13.2648124,6.11371934 13.1920054,6.16055321 C13.1584595,6.18260726 12.3707518,6.70769182 12.7044715,7.48280484 C13.305316,8.87890036 15.348883,9.1752671 16.1994582,9.23771227 C16.3068051,9.22928713 16.4290613,9.16535517 16.5339233,9.06227109 C16.6057364,8.97975426 16.6681069,8.91334432 16.7299805,8.85436833 C17.5567008,8.06413961 17.6061499,7.29051338 17.6078893,7.2580518 C17.6170834,7.07963704 17.7699036,6.94087 17.9475727,6.95003854 C18.1252418,6.95796808 18.2643952,7.10838164 18.257686,7.28530961 C18.2561951,7.32842651 18.2060004,8.34241708 17.1797441,9.32320268 Z" id="Shape-Copy-4" fill="#3B5D99" fill-rule="nonzero"></path>
    </g>
</svg>