<?xml version="1.0" encoding="UTF-8"?>
<svg width="24px" height="24px" viewBox="0 0 24 24" version="1.1" xmlns="http://www.w3.org/2000/svg" xmlns:xlink="http://www.w3.org/1999/xlink">
    <!-- Generator: Sketch 61.2 (89653) - https://sketch.com -->
    <title>Morphological characteristics hover</title>
    <desc>Created with Sketch.</desc>
    <g id="Morphological-characteristics-hover" stroke="none" stroke-width="1" fill="none" fill-rule="evenodd">
        <g id="Group-36-Copy-4" transform="translate(7.000000, 0.000000)" fill="#FF4B00">
            <path d="M10.1674047,15.8853529 C10.303461,15.5164714 10.0243298,14.0177152 9.96556693,13.6012653 C9.81482736,12.5307588 9.6666427,11.4628073 9.51590314,10.3923009 C9.43670099,9.82255643 9.35749885,9.25281197 9.27574179,8.6830675 C9.2476378,8.48122977 9.23741817,8.26661751 9.18632001,8.06733469 C9.04835499,7.53080402 8.54759303,7.170562 8.00595255,7.16034237 C7.7964501,7.15523256 7.58439274,7.16034237 7.37489029,7.16034237 C6.33759768,7.16034237 5.30030506,7.16034237 4.26556735,7.16034237 C3.58085202,7.16034237 2.8961367,7.14501293 2.21142137,7.16034237 C1.66722599,7.17311691 1.16646403,7.53080402 1.03105391,8.06733469 C0.979955754,8.26661751 0.969736122,8.48122977 0.941632135,8.6830675 C0.913528148,8.89001504 0.882869253,9.09696258 0.854765266,9.30391012 C0.729574777,10.1930181 0.606939197,11.082126 0.481748708,11.971234 C0.346338588,12.9318794 0.213483376,13.8925248 0.078073256,14.8531701 C0.0320849133,15.1878631 -0.0573368641,15.5608796 0.0525241768,15.8853529 C0.228812824,16.3963345 0.696360974,16.7233627 1.23544655,16.7284726 C1.45772354,16.7310275 1.68255543,16.7284726 1.90483242,16.7284726 C2.07601125,16.7284726 2.24974499,16.7284726 2.42092382,16.7284726 C2.22930573,16.5368545 2.03768764,16.3452364 1.84606954,16.1536183 C1.9610404,17.2062403 2.07601125,18.2588624 2.1884272,19.3089296 C2.26251953,19.99109 2.33661186,20.6732504 2.41070419,21.3528559 C2.43369836,21.5521387 2.45413763,21.7539764 2.4771318,21.9532593 C2.48224161,21.9941378 2.48479652,22.0324614 2.48990634,22.0733399 C2.52312014,22.3620445 2.60998701,22.6047608 2.80160511,22.8295927 C3.08264498,23.1591758 3.48632043,23.2332681 3.8951057,23.2332681 C4.20680447,23.2332681 4.51850323,23.2332681 4.83275691,23.2332681 C5.39228174,23.2332681 5.95436149,23.2460427 6.51133142,23.2332681 C6.85879889,23.2256034 7.20115656,23.0850835 7.42854336,22.8142632 C7.61505164,22.5945412 7.69680869,22.3543798 7.7300225,22.070785 C7.74535194,21.9430396 7.75812648,21.8178491 7.77090102,21.6901038 C7.83732863,21.0794808 7.90375624,20.4663029 7.97018384,19.8556799 C8.10303905,18.6420986 8.23333936,17.4285173 8.36619457,16.2149361 C8.36874948,16.1919419 7.9906231,16.5317446 7.79900501,16.7233627 C8.10814887,16.7233627 8.41729273,16.7233627 8.7289915,16.7233627 C8.84651726,16.7233627 8.96659793,16.7284726 9.0841237,16.7182529 C9.30640069,16.7003686 9.51845804,16.6364959 9.69985651,16.5036407 C9.92724331,16.3375716 10.0626534,16.1382888 10.1674047,15.8802431 C10.2798206,15.6017582 10.0967688,16.0768637 10.1674047,15.8853529 Z" id="Path" fill-rule="nonzero"></path>
            <circle id="Oval" cx="4.91962378" cy="3.22237762" r="3.22237762"></circle>
        </g>
    </g>
</svg>