<?xml version="1.0" encoding="UTF-8"?>
<svg width="24px" height="24px" viewBox="0 0 24 24" version="1.1" xmlns="http://www.w3.org/2000/svg" xmlns:xlink="http://www.w3.org/1999/xlink">
    <!-- Generator: Sketch 61.2 (89653) - https://sketch.com -->
    <title>Sports trail</title>
    <desc>Created with Sketch.</desc>
    <g id="Sports-trail" stroke="none" stroke-width="1" fill="none" fill-rule="evenodd">
        <g id="Group-2-Copy-2" transform="translate(0.000000, 3.000000)">
            <path d="M22,12.6464571 L22,2.66629471 C22,1.19087471 20.7895019,-1.43884904e-13 19.3111944,-1.43884904e-13 C17.8221746,-1.43884904e-13 16.6116765,1.19087471 16.6116765,2.66629471 L16.6116765,10.6441014 C16.6116765,11.7822826 15.6797001,12.7096894 14.5227638,12.7096894 C13.3658275,12.7096894 12.4338511,11.7822826 12.4338511,10.6441014 L12.4338511,9.70615585 C12.4338511,8.50474242 11.4376004,7.52464199 10.2163899,7.52464199 C8.99517943,7.52464199 7.99892876,8.50474242 7.99892876,9.70615585 L7.99892876,14.4801934 C7.99892876,15.860765 6.86341725,16.9778687 5.46009641,16.9778687 C4.05677558,16.9778687 2.92126406,15.8502263 2.92126406,14.4801934 L2.92126406,8.18858099 C2.92126406,7.52464199 2,7.52464199 2,8.19911971 L2,14.4907321 C2,16.3666233 3.55329405,17.8947368 5.46009641,17.8947368 C7.36689877,17.8947368 8.92019282,16.3666233 8.92019282,14.4907321 L8.92019282,9.71669456 C8.92019282,9.01060071 9.50937333,8.43097142 10.2163899,8.43097142 C10.9341189,8.43097142 11.5232994,9.01060071 11.5232994,9.71669456 L11.5232994,10.6546401 C11.5232994,12.2881408 12.8730584,13.6265576 14.5334762,13.6265576 C16.1831816,13.6265576 17.5329405,12.2881408 17.5329405,10.6546401 L17.5329405,2.67683343 C17.5329405,1.696733 18.3363685,0.906329428 19.3219068,0.906329428 C20.2967327,0.906329428 21.1001607,1.696733 21.1001607,2.67683343 L21.1001607,12.6569958 C21.1001607,13.0741422 22,13.0741422 22,12.6464571 Z" id="Path" stroke="#3B5D99" stroke-width="0.5" fill="#3B5D99" fill-rule="nonzero"></path>
            <circle id="Oval" fill="#3B5D99" cx="2.5" cy="8.94736842" r="2.5"></circle>
            <circle id="Oval-Copy" fill="#3B5D99" cx="17" cy="5.44736842" r="2"></circle>
            <circle id="Oval-Copy-2" fill="#3B5D99" cx="21.5" cy="12.9473684" r="2.5"></circle>
            <circle id="Oval-Copy-3" fill="#F5F8FB" cx="21.5" cy="13" r="1.5"></circle>
            <circle id="Oval-Copy-4" fill="#F5F8FB" cx="17" cy="5.5" r="1"></circle>
            <circle id="Oval-Copy-9" fill="#F5F8FB" cx="2.5" cy="9" r="1.5"></circle>
        </g>
    </g>
</svg>