<?xml version="1.0" encoding="UTF-8"?>
<svg width="24px" height="24px" viewBox="0 0 24 24" version="1.1" xmlns="http://www.w3.org/2000/svg" xmlns:xlink="http://www.w3.org/1999/xlink">
    <!-- Generator: Sketch 61.2 (89653) - https://sketch.com -->
    <title>Groups</title>
    <desc>Created with Sketch.</desc>
    <g id="Groups" stroke="none" stroke-width="1" fill="none" fill-rule="evenodd">
        <g id="Group-3-Copy-2" fill="#3B5D99">
            <g id="Group-36" transform="translate(6.787413, 0.000000)">
                <path d="M10.1674047,15.8853529 C10.303461,15.5164714 10.0243298,14.0177152 9.96556693,13.6012653 C9.81482736,12.5307588 9.6666427,11.4628073 9.51590314,10.3923009 C9.43670099,9.82255643 9.35749885,9.25281197 9.27574179,8.6830675 C9.2476378,8.48122977 9.23741817,8.26661751 9.18632001,8.06733469 C9.04835499,7.53080402 8.54759303,7.170562 8.00595255,7.16034237 C7.7964501,7.15523256 7.58439274,7.16034237 7.37489029,7.16034237 C6.33759768,7.16034237 5.30030506,7.16034237 4.26556735,7.16034237 C3.58085202,7.16034237 2.8961367,7.14501293 2.21142137,7.16034237 C1.66722599,7.17311691 1.16646403,7.53080402 1.03105391,8.06733469 C0.979955754,8.26661751 0.969736122,8.48122977 0.941632135,8.6830675 C0.913528148,8.89001504 0.882869253,9.09696258 0.854765266,9.30391012 C0.729574777,10.1930181 0.606939197,11.082126 0.481748708,11.971234 C0.346338588,12.9318794 0.213483376,13.8925248 0.078073256,14.8531701 C0.0320849133,15.1878631 -0.0573368641,15.5608796 0.0525241768,15.8853529 C0.228812824,16.3963345 0.696360974,16.7233627 1.23544655,16.7284726 C1.45772354,16.7310275 1.68255543,16.7284726 1.90483242,16.7284726 C2.07601125,16.7284726 2.24974499,16.7284726 2.42092382,16.7284726 C2.22930573,16.5368545 2.03768764,16.3452364 1.84606954,16.1536183 C1.9610404,17.2062403 2.07601125,18.2588624 2.1884272,19.3089296 C2.26251953,19.99109 2.33661186,20.6732504 2.41070419,21.3528559 C2.43369836,21.5521387 2.45413763,21.7539764 2.4771318,21.9532593 C2.48224161,21.9941378 2.48479652,22.0324614 2.48990634,22.0733399 C2.52312014,22.3620445 2.60998701,22.6047608 2.80160511,22.8295927 C3.08264498,23.1591758 3.48632043,23.2332681 3.8951057,23.2332681 C4.20680447,23.2332681 4.51850323,23.2332681 4.83275691,23.2332681 C5.39228174,23.2332681 5.95436149,23.2460427 6.51133142,23.2332681 C6.85879889,23.2256034 7.20115656,23.0850835 7.42854336,22.8142632 C7.61505164,22.5945412 7.69680869,22.3543798 7.7300225,22.070785 C7.74535194,21.9430396 7.75812648,21.8178491 7.77090102,21.6901038 C7.83732863,21.0794808 7.90375624,20.4663029 7.97018384,19.8556799 C8.10303905,18.6420986 8.23333936,17.4285173 8.36619457,16.2149361 C8.36874948,16.1919419 7.9906231,16.5317446 7.79900501,16.7233627 C8.10814887,16.7233627 8.41729273,16.7233627 8.7289915,16.7233627 C8.84651726,16.7233627 8.96659793,16.7284726 9.0841237,16.7182529 C9.30640069,16.7003686 9.51845804,16.6364959 9.69985651,16.5036407 C9.92724331,16.3375716 10.0626534,16.1382888 10.1674047,15.8802431 C10.2798206,15.6017582 10.0967688,16.0768637 10.1674047,15.8853529 Z" id="Path" fill-rule="nonzero"></path>
                <circle id="Oval" cx="4.91962378" cy="3.22237762" r="3.22237762"></circle>
            </g>
            <path d="M8.31878563,15.1453587 C8.43010447,14.8435466 8.20172439,13.6172915 8.15364567,13.2765597 C8.0303133,12.4006908 7.9090713,11.5269123 7.78573893,10.6510434 C7.72093717,10.1848888 7.65613542,9.71873427 7.58924328,9.2525797 C7.56624911,9.08743974 7.5578876,8.91184789 7.51608001,8.74879831 C7.40319953,8.30981868 6.99348521,8.01507521 6.55032482,8.00671369 C6.37891372,8.00253293 6.20541225,8.00671369 6.03400115,8.00671369 C5.18530719,8.00671369 4.33661323,8.00671369 3.49000965,8.00671369 C2.92978802,8.00671369 2.36956639,7.99417141 1.80934476,8.00671369 C1.36409399,8.01716559 0.954379663,8.30981868 0.843589565,8.74879831 C0.801781981,8.91184789 0.793420464,9.08743974 0.770426292,9.2525797 C0.747432121,9.42190042 0.722347571,9.59122113 0.699353399,9.76054185 C0.596924818,10.4879938 0.496586616,11.2154458 0.394158034,11.9428977 C0.283367936,12.7288803 0.174668217,13.5148629 0.0638781186,14.3008455 C0.0262512927,14.5746852 -0.0469119797,14.8798805 0.0429743264,15.1453587 C0.187210492,15.5634345 0.569749888,15.8310031 1.0108199,15.8351838 C1.19268289,15.8372742 1.37663626,15.8351838 1.55849926,15.8351838 C1.69855466,15.8351838 1.84070045,15.8351838 1.98075586,15.8351838 C1.82397742,15.6784054 1.66719897,15.521627 1.51042053,15.3648485 C1.6044876,16.2260848 1.69855466,17.087321 1.79053135,17.9464668 C1.85115235,18.5045981 1.91177334,19.0627293 1.97239434,19.6187702 C1.99120775,19.7818198 2.00793079,19.9469598 2.0267442,20.1100093 C2.03092496,20.1434554 2.03301534,20.1748111 2.0371961,20.2082572 C2.06437103,20.44447 2.13544392,20.643056 2.29222236,20.8270094 C2.52216407,21.0966683 2.85244399,21.1572893 3.18690466,21.1572893 C3.44193093,21.1572893 3.69695719,21.1572893 3.95407383,21.1572893 C4.41186688,21.1572893 4.87175031,21.1677412 5.32745298,21.1572893 C5.61174455,21.1510182 5.89185536,21.0360473 6.07789911,20.8144671 C6.2304968,20.6346945 6.29738893,20.4381989 6.32456386,20.2061668 C6.33710614,20.1016478 6.34755803,19.9992192 6.35800993,19.8947003 C6.41235979,19.3950996 6.46670965,18.8934086 6.52105951,18.393808 C6.62975923,17.4008779 6.73636857,16.4079477 6.84506828,15.4150176 C6.84715866,15.3962042 6.53778254,15.6742246 6.3810041,15.8310031 C6.63393998,15.8310031 6.88687587,15.8310031 7.14190213,15.8310031 C7.23805958,15.8310031 7.3363074,15.8351838 7.43246484,15.8268223 C7.61432783,15.8121897 7.78782931,15.7599302 7.93624623,15.6512305 C8.12228998,15.5153558 8.23308008,15.3523062 8.31878563,15.1411779 C8.41076231,14.9133266 8.26099267,15.3020493 8.31878563,15.1453587 Z" id="Path-Copy-9" fill-rule="nonzero"></path>
            <circle id="Oval-Copy" cx="4.02514673" cy="4.78474253" r="2.63649078"></circle>
            <path d="M23.9075968,15.1453587 C24.0189157,14.8435466 23.7905356,13.6172915 23.7424569,13.2765597 C23.6191245,12.4006908 23.4978825,11.5269123 23.3745501,10.6510434 C23.3097484,10.1848888 23.2449466,9.71873427 23.1780545,9.2525797 C23.1550603,9.08743974 23.1466988,8.91184789 23.1048912,8.74879831 C22.9920107,8.30981868 22.5822964,8.01507521 22.139136,8.00671369 C21.9677249,8.00253293 21.7942234,8.00671369 21.6228123,8.00671369 C20.7741184,8.00671369 19.9254244,8.00671369 19.0788208,8.00671369 C18.5185992,8.00671369 17.9583776,7.99417141 17.3981559,8.00671369 C16.9529052,8.01716559 16.5431909,8.30981868 16.4324008,8.74879831 C16.3905932,8.91184789 16.3822317,9.08743974 16.3592375,9.2525797 C16.3362433,9.42190042 16.3111588,9.59122113 16.2881646,9.76054185 C16.185736,10.4879938 16.0853978,11.2154458 15.9829692,11.9428977 C15.8721791,12.7288803 15.7634794,13.5148629 15.6526893,14.3008455 C15.6150625,14.5746852 15.5418992,14.8798805 15.6317855,15.1453587 C15.7760217,15.5634345 16.1585611,15.8310031 16.5996311,15.8351838 C16.7814941,15.8372742 16.9654475,15.8351838 17.1473104,15.8351838 C17.2873659,15.8351838 17.4295116,15.8351838 17.569567,15.8351838 C17.4127886,15.6784054 17.2560102,15.521627 17.0992317,15.3648485 C17.1932988,16.2260848 17.2873659,17.087321 17.3793425,17.9464668 C17.4399635,18.5045981 17.5005845,19.0627293 17.5612055,19.6187702 C17.5800189,19.7818198 17.596742,19.9469598 17.6155554,20.1100093 C17.6197361,20.1434554 17.6218265,20.1748111 17.6260073,20.2082572 C17.6531822,20.44447 17.7242551,20.643056 17.8810335,20.8270094 C18.1109753,21.0966683 18.4412552,21.1572893 18.7757159,21.1572893 C19.0307421,21.1572893 19.2857684,21.1572893 19.542885,21.1572893 C20.0006781,21.1572893 20.4605615,21.1677412 20.9162642,21.1572893 C21.2005557,21.1510182 21.4806666,21.0360473 21.6667103,20.8144671 C21.819308,20.6346945 21.8862001,20.4381989 21.913375,20.2061668 C21.9259173,20.1016478 21.9363692,19.9992192 21.9468211,19.8947003 C22.001171,19.3950996 22.0555208,18.8934086 22.1098707,18.393808 C22.2185704,17.4008779 22.3251798,16.4079477 22.4338795,15.4150176 C22.4359699,15.3962042 22.1265937,15.6742246 21.9698153,15.8310031 C22.2227512,15.8310031 22.4756871,15.8310031 22.7307133,15.8310031 C22.8268708,15.8310031 22.9251186,15.8351838 23.021276,15.8268223 C23.203139,15.8121897 23.3766405,15.7599302 23.5250574,15.6512305 C23.7111012,15.5153558 23.8218913,15.3523062 23.9075968,15.1411779 C23.9995735,14.9133266 23.8498039,15.3020493 23.9075968,15.1453587 Z" id="Path-Copy-9" fill-rule="nonzero"></path>
            <circle id="Oval-Copy" cx="19.6139579" cy="4.78474253" r="2.63649078"></circle>
        </g>
    </g>
</svg>