<?xml version="1.0" encoding="UTF-8"?>
<svg width="24px" height="24px" viewBox="0 0 24 24" version="1.1" xmlns="http://www.w3.org/2000/svg" xmlns:xlink="http://www.w3.org/1999/xlink">
    <!-- Generator: Sketch 61.2 (89653) - https://sketch.com -->
    <title>Game elements active</title>
    <desc>Created with Sketch.</desc>
    <g id="Game-elements-active" stroke="none" stroke-width="1" fill="none" fill-rule="evenodd">
        <g id="noun_Football_3260478-Copy-2" fill="#FFFFFF" stroke="#FFFFFF" stroke-width="0.4">
            <path d="M-0.041005002,11.9005294 C-0.0698047922,5.2531371 5.39099499,-0.076804214 11.8790051,-0.170381061 C18.6285998,-0.257660302 24.0079385,5.2710645 24.0706117,11.869585 C24.1008455,18.5488828 18.6564283,24.0308083 11.99703,23.9113563 C5.40352307,23.8134329 -0.0407754067,18.806327 -0.0410050026,11.9005294 Z M19.9384067,3.78139109 C18.6061602,2.46987168 16.9572778,1.5202262 15.0781109,0.957235604 L12.7739625,2.38248204 C12.5269467,2.53527529 12.3759214,2.80441091 12.3742128,3.09485821 L12.3515828,6.94196936 C12.3497966,7.24561537 12.5113597,7.52678614 12.7745969,7.67814753 L15.2783675,9.11781562 C15.5393176,9.26786196 15.860453,9.26747258 16.1210386,9.11679387 L19.446267,7.19404272 C19.7001173,7.04725855 19.8595179,6.7791684 19.8672318,6.48603696 L19.9384067,3.78139109 Z M23.0172729,14.6968437 C23.4869632,12.8178283 23.4796951,10.9280356 22.9893993,9.1038762 L20.6191311,7.80022873 C20.3603861,7.65791894 20.0460599,7.66128489 19.7904216,7.80910292 L16.4695454,9.72933749 C16.2088442,9.88008308 16.0482886,10.1583856 16.0482886,10.4595324 L16.0482886,13.3406526 C16.0482886,13.6417994 16.2088442,13.9201019 16.4695454,14.0708475 L19.7929135,15.992523 C20.0474618,16.1397107 20.360289,16.1437162 20.6185224,16.003094 L23.0172729,14.6968437 Z M15.0794089,22.81462 C16.9305112,22.2955986 18.5418839,21.3668179 19.9383759,20.0176233 L19.8672318,17.3141481 C19.8595179,17.0210166 19.7001173,16.7529265 19.446267,16.6061423 L16.1210386,14.6833911 C15.860453,14.5327124 15.5393176,14.5323231 15.2783675,14.6823694 L12.7710398,16.1240828 C12.5093403,16.27456 12.3480111,16.5534219 12.3480111,16.8552994 L12.3480111,20.6697411 C12.3480111,20.9633327 12.5006739,21.2358026 12.7510639,21.3891026 L15.0794089,22.81462 Z M4.09117575,20.0187927 C5.44049478,21.3479182 7.07082111,22.287804 8.92098746,22.8143773 L11.2489361,21.3891026 C11.4993261,21.2358026 11.6519889,20.9633327 11.6519889,20.6697411 L11.6519889,16.8552994 C11.6519889,16.5534219 11.4906597,16.27456 11.2289602,16.1240828 L8.72032692,14.6816187 C8.45994288,14.5318979 8.13958516,14.5319391 7.87923965,14.6817269 L4.58501589,16.5770337 C4.33022424,16.7236262 4.17012791,16.9922932 4.16246219,17.2861458 L4.09117575,20.0187927 Z M1.01050019,9.1043373 C0.527871656,10.9040849 0.534879503,12.8179793 1.01183581,14.6962265 L3.38507523,15.9777757 C3.64152155,16.1162568 3.95128803,16.1125374 4.20433541,15.9679389 L7.52671553,14.069436 C7.78952226,13.9192607 7.95171138,13.6397797 7.95171138,13.3370917 L7.95171138,10.4574737 C7.95171138,10.1572196 7.79209834,9.87960134 7.53261636,9.72853306 L4.2370636,7.80988933 C3.98218325,7.66150008 3.66830813,7.65701615 3.40929296,7.79806401 L1.01050019,9.1043373 Z M8.92198966,0.956819097 C7.03740941,1.51270387 5.46295962,2.42850393 4.09119409,3.7813381 L4.16242373,6.48806444 C4.17011431,6.78030665 4.32858135,7.04772783 4.58122683,7.19481595 L7.878587,9.11451194 C8.1394966,9.26641137 8.46169555,9.26727938 8.7234198,9.11678793 L11.2289602,7.67610221 C11.4906597,7.52562497 11.6519889,7.24676313 11.6519889,6.94488559 L11.6519889,3.1008417 C11.6519889,2.80725006 11.4993261,2.53478017 11.2489361,2.38148016 L8.92198966,0.956819097 Z" id="Shape"></path>
        </g>
    </g>
</svg>