<?xml version="1.0" encoding="UTF-8"?>
<svg width="24px" height="24px" viewBox="0 0 24 24" version="1.1" xmlns="http://www.w3.org/2000/svg" xmlns:xlink="http://www.w3.org/1999/xlink">
    <!-- Generator: Sketch 61.2 (89653) - https://sketch.com -->
    <title>Users</title>
    <desc>Created with Sketch.</desc>
    <g id="Users" stroke="none" stroke-width="1" fill="none" fill-rule="evenodd">
        <g id="Group-Copy" transform="translate(1.000000, 0.000000)" fill="#3B5D99">
            <path d="M3.95718473,23.7362637 C7.97652539,23.7362637 14.1590309,23.7362637 18.1791628,23.7267692 C19.6152067,23.7267692 20.9396902,22.9442637 21.6335803,21.6838681 C22.3266792,20.4258462 22.2807891,18.8909011 21.5156902,17.6763956 C19.5170968,14.4387692 15.5974485,12.6593407 11.0669869,12.6593407 C6.53573418,12.6593407 2.61687704,14.4387692 0.609580334,17.6708571 C-0.157892193,18.8837802 -0.204573512,20.4258462 0.491690224,21.6886154 C1.18716275,22.9521758 2.5148111,23.7362637 3.95718473,23.7362637 Z" id="Shape"></path>
            <path d="M11.0669869,0 C8.01054737,0 5.52852539,2.48202198 5.52852539,5.53846154 C5.52852539,8.5949011 8.01054737,11.0769231 11.0669869,11.0769231 C14.1234265,11.0769231 16.6054485,8.5949011 16.6054485,5.53846154 C16.6054485,2.48202198 14.1234265,0 11.0669869,0 Z" id="Shape"></path>
        </g>
    </g>
</svg>