<?xml version="1.0" encoding="UTF-8"?>
<svg width="24px" height="24px" viewBox="0 0 24 24" version="1.1" xmlns="http://www.w3.org/2000/svg" xmlns:xlink="http://www.w3.org/1999/xlink">
    <!-- Generator: Sketch 61.2 (89653) - https://sketch.com -->
    <title>Motor skills hover</title>
    <desc>Created with Sketch.</desc>
    <g id="Motor-skills-hover" stroke="none" stroke-width="1" fill="none" fill-rule="evenodd">
        <g id="Group-39-Copy-3" transform="translate(2.000000, 0.000000)" fill="#FF4B00" fill-rule="nonzero">
            <path d="M4.61497955,14.5714286 L0.243550977,21.4285714 C-0.21359188,22.1428571 -0.0135918801,23.1142857 0.729265263,23.5714286 C0.98640812,23.7428571 1.27212241,23.8285714 1.55783669,23.8285714 C2.07212241,23.8285714 2.58640812,23.5714286 2.87212241,23.1142857 L7.15783669,16.4 L5.98640812,15.8571429 C5.41497955,15.5714286 4.92926526,15.1142857 4.61497955,14.5714286 Z" id="Path"></path>
            <circle id="Oval" cx="15.1006938" cy="2.74285714" r="2.74285714"></circle>
            <path d="M19.6721224,10.4571429 C19.4721224,9.77142857 18.7578367,9.37142857 18.0721224,9.54285714 L16.1578367,10.0857143 L15.2149795,7.97142857 C14.9292653,7.34285714 14.4721224,6.8 13.9006938,6.42857143 L11.6721224,4.97142857 C11.0149795,4.54285714 10.2149795,4.34285714 9.44355098,4.4 L6.15783669,4.65714286 C5.81497955,4.68571429 5.50069383,4.85714286 5.27212241,5.11428571 L3.04355098,7.74285714 C2.58640812,8.28571429 2.64355098,9.11428571 3.18640812,9.57142857 C3.72926526,10.0285714 4.55783669,9.97142857 5.01497955,9.42857143 L6.90069383,7.2 L8.87212241,7.05714286 L6.04355098,12.1428571 C5.84355098,12.5142857 5.78640812,12.9714286 5.92926526,13.3714286 C6.07212241,13.7714286 6.35783669,14.1142857 6.75783669,14.3142857 L11.1292653,16.3714286 L8.70069383,19.6857143 C8.18640812,20.3714286 8.35783669,21.3428571 9.04355098,21.8571429 C9.32926526,22.0571429 9.64355098,22.1714286 9.95783669,22.1714286 C10.443551,22.1714286 10.9006938,21.9428571 11.2149795,21.5428571 L14.7578367,16.6857143 C15.043551,16.3142857 15.1292653,15.8285714 15.0149795,15.3714286 C14.9006938,14.9142857 14.5864081,14.5428571 14.1578367,14.3428571 L11.1006938,12.8857143 L13.2149795,9.77142857 L14.2721224,12.1428571 C14.4721224,12.6285714 14.9578367,12.9142857 15.4721224,12.9142857 C15.5864081,12.9142857 15.7006938,12.8857143 15.8149795,12.8571429 L18.8149795,12.0285714 C19.4721224,11.8571429 19.8721224,11.1428571 19.6721224,10.4571429 Z" id="Path"></path>
        </g>
    </g>
</svg>