<?xml version="1.0" encoding="UTF-8"?>
<svg width="24px" height="24px" viewBox="0 0 24 24" version="1.1" xmlns="http://www.w3.org/2000/svg" xmlns:xlink="http://www.w3.org/1999/xlink">
    <!-- Generator: Sketch 61.2 (89653) - https://sketch.com -->
    <title>Player rating</title>
    <desc>Created with Sketch.</desc>
    <g id="Player-rating" stroke="none" stroke-width="1" fill="none" fill-rule="evenodd">
        <g id="Group-Copy-2" transform="translate(0.000000, 7.000000)" fill="#3B5D99" fill-rule="nonzero">
            <g id="1564507_checked_favorite_star_favourite_rating_icon" transform="translate(8.000000, 3.000000)">
                <path d="M4.35702479,0.27107438 L5.26942149,2.25454545 C5.30909091,2.37355372 5.42809917,2.45289256 5.54710744,2.49256198 L7.60991736,2.80991736 C7.96694215,2.80991736 8.08595041,3.20661157 7.84793388,3.4446281 L6.34049587,4.99173554 C6.26115702,5.07107438 6.2214876,5.22975207 6.2214876,5.34876033 L6.5785124,7.49090909 C6.61818182,7.80826446 6.30082645,8.08595041 6.0231405,7.92727273 L4.15867769,6.89586777 C4.03966942,6.81652893 3.92066116,6.81652893 3.80165289,6.89586777 L1.93719008,7.92727273 C1.65950413,8.08595041 1.30247934,7.84793388 1.38181818,7.49090909 L1.73884298,5.34876033 C1.7785124,5.22975207 1.69917355,5.07107438 1.61983471,4.99173554 L0.112396694,3.4446281 C-0.0859504132,3.20661157 0.0330578512,2.80991736 0.350413223,2.77024793 L2.41322314,2.45289256 C2.5322314,2.45289256 2.65123967,2.3338843 2.69090909,2.21487603 L3.60330579,0.231404959 C3.80165289,-0.0462809917 4.19834711,-0.0462809917 4.35702479,0.27107438 Z" id="favorite"></path>
            </g>
            <g id="1564507_checked_favorite_star_favourite_rating_icon-copy" transform="translate(16.000000, 0.000000)">
                <path d="M4.35702479,0.27107438 L5.26942149,2.25454545 C5.30909091,2.37355372 5.42809917,2.45289256 5.54710744,2.49256198 L7.60991736,2.80991736 C7.96694215,2.80991736 8.08595041,3.20661157 7.84793388,3.4446281 L6.34049587,4.99173554 C6.26115702,5.07107438 6.2214876,5.22975207 6.2214876,5.34876033 L6.5785124,7.49090909 C6.61818182,7.80826446 6.30082645,8.08595041 6.0231405,7.92727273 L4.15867769,6.89586777 C4.03966942,6.81652893 3.92066116,6.81652893 3.80165289,6.89586777 L1.93719008,7.92727273 C1.65950413,8.08595041 1.30247934,7.84793388 1.38181818,7.49090909 L1.73884298,5.34876033 C1.7785124,5.22975207 1.69917355,5.07107438 1.61983471,4.99173554 L0.112396694,3.4446281 C-0.0859504132,3.20661157 0.0330578512,2.80991736 0.350413223,2.77024793 L2.41322314,2.45289256 C2.5322314,2.45289256 2.65123967,2.3338843 2.69090909,2.21487603 L3.60330579,0.231404959 C3.80165289,-0.0462809917 4.19834711,-0.0462809917 4.35702479,0.27107438 Z" id="favorite"></path>
            </g>
            <g id="1564507_checked_favorite_star_favourite_rating_icon-copy-2">
                <path d="M4.35702479,0.27107438 L5.26942149,2.25454545 C5.30909091,2.37355372 5.42809917,2.45289256 5.54710744,2.49256198 L7.60991736,2.80991736 C7.96694215,2.80991736 8.08595041,3.20661157 7.84793388,3.4446281 L6.34049587,4.99173554 C6.26115702,5.07107438 6.2214876,5.22975207 6.2214876,5.34876033 L6.5785124,7.49090909 C6.61818182,7.80826446 6.30082645,8.08595041 6.0231405,7.92727273 L4.15867769,6.89586777 C4.03966942,6.81652893 3.92066116,6.81652893 3.80165289,6.89586777 L1.93719008,7.92727273 C1.65950413,8.08595041 1.30247934,7.84793388 1.38181818,7.49090909 L1.73884298,5.34876033 C1.7785124,5.22975207 1.69917355,5.07107438 1.61983471,4.99173554 L0.112396694,3.4446281 C-0.0859504132,3.20661157 0.0330578512,2.80991736 0.350413223,2.77024793 L2.41322314,2.45289256 C2.5322314,2.45289256 2.65123967,2.3338843 2.69090909,2.21487603 L3.60330579,0.231404959 C3.80165289,-0.0462809917 4.19834711,-0.0462809917 4.35702479,0.27107438 Z" id="favorite"></path>
            </g>
        </g>
    </g>
</svg>