<?xml version="1.0" encoding="UTF-8"?>
<svg width="24px" height="24px" viewBox="0 0 24 24" version="1.1" xmlns="http://www.w3.org/2000/svg" xmlns:xlink="http://www.w3.org/1999/xlink">
    <!-- Generator: Sketch 61.2 (89653) - https://sketch.com -->
    <title>Social capital hover</title>
    <desc>Created with Sketch.</desc>
    <g id="Social-capital-hover" stroke="none" stroke-width="1" fill="none" fill-rule="evenodd">
        <g id="Group-Copy" transform="translate(1.000000, 1.000000)" fill="#FF4B00">
            <path d="M11,20 C12.6157095,20 14.1195486,19.5210255 15.3772717,18.697322 C15.6667711,19.3153452 16.1109132,19.847703 16.6596655,20.2442539 C15.0505225,21.3521186 13.1009216,22 11,22 C8.89907837,22 6.94947754,21.3521186 5.34009188,20.2452503 C5.88908685,19.847703 6.33322889,19.3153452 6.62348266,18.6964585 C7.88045144,19.5210255 9.38429048,20 11,20 Z M19,14 C19.6228321,14 20.201334,14.1898001 20.6808217,14.5147164 C20.1603428,16.5247383 19.030792,18.2887012 17.5010028,19.5987271 C16.9106776,19.2578361 16.4478879,18.7219618 16.1999979,18.0792761 C17.4246942,17.0308777 18.3283082,15.619714 18.7447681,14.0123798 L18.8237272,14.0050927 L19,14 Z M3,14 C3.08653677,14 3.17221777,14.003664 3.25689632,14.0108453 C3.67169177,15.619714 4.57530577,17.0308777 5.79910729,18.0789042 C5.55211212,18.7219618 5.08932243,19.2578361 4.49971203,19.59882 C2.96920797,18.2887012 1.83965721,16.5247383 1.31906043,14.5155539 C1.79866605,14.1898001 2.37716793,14 3,14 Z M14.996459,2.83014978 C18.5301313,4.37280482 21,7.89796804 21,12 C21,12.5014443 20.9630919,12.9942684 20.8918442,13.4759037 C20.3281479,13.171749 19.684131,13 19,13 L18.9368538,13.0004883 L18.9368538,13.0004883 C18.9788727,12.6737362 19,12.3393354 19,12 C19,8.8589023 17.1897078,6.140621 14.555525,4.83155786 C14.8398288,4.28392928 15,3.66066964 15,3 C15,2.94309793 14.9988118,2.88647338 14.996459,2.83014978 Z M7.00360196,2.83051446 L7,3 C7,3.66066964 7.16017122,4.28392928 7.44380044,4.8330657 C4.81029223,6.140621 3,8.8589023 3,12 C3,12.3393354 3.0211273,12.6737362 3.06213826,13.0019588 L3,13 C2.31577885,13 1.67168241,13.1717943 1.10849179,13.4746018 C1.03690806,12.9942684 1,12.5014443 1,12 C1,7.89796804 3.46986869,4.37280482 7.00360196,2.83051446 Z M11,2 C12.0260269,2 13.015963,2.15452305 13.9478061,2.44156697 C13.9821536,2.62219887 14,2.8090153 14,3 C14,3.52289934 13.8662201,4.01455271 13.6310199,4.44260068 C12.8066241,4.15580569 11.9215072,4 11,4 C10.0784928,4 9.19337588,4.15580569 8.36955548,4.44251096 C8.13377985,4.01455271 8,3.52289934 8,3 C8,2.8090153 8.01784644,2.62219887 8.05196265,2.44112737 C8.98403702,2.15452305 9.97397311,2 11,2 Z" id="Combined-Shape" fill-rule="nonzero"></path>
            <circle id="Oval-Copy-6" cx="11" cy="3" r="3"></circle>
            <circle id="Oval-Copy-7" cx="19" cy="17" r="3"></circle>
            <circle id="Oval-Copy-8" cx="3" cy="17" r="3"></circle>
        </g>
    </g>
</svg>