<?xml version="1.0" encoding="UTF-8"?>
<svg width="17px" height="24px" viewBox="0 0 17 24" version="1.1" xmlns="http://www.w3.org/2000/svg" xmlns:xlink="http://www.w3.org/1999/xlink">
    <!-- Generator: Sketch 50 (54983) - http://www.bohemiancoding.com/sketch -->
    <title>Page 1</title>
    <desc>Created with Sketch.</desc>
    <defs>
        <polygon id="path-1" points="0 0.14254284 16.2152662 0.14254284 16.2152662 23.3046004 0 23.3046004"></polygon>
    </defs>
    <g id="Page-1" stroke="none" stroke-width="1" fill="none" fill-rule="evenodd">
        <g id="INFOSTAN-APP-menu" transform="translate(-16.000000, -378.000000)">
            <g id="Page-1" transform="translate(16.801932, 378.000000)">
                <g id="Group-3" transform="translate(0.000000, 0.083716)">
                    <mask id="mask-2" fill="white">
                        <use xlink:href="#path-1"></use>
                    </mask>
                    <g id="Clip-2"></g>
                    <path d="M8.10774625,1.72632955 C4.51046273,1.72632955 1.58380934,4.65298294 1.58380934,8.2500402 C1.58380934,11.0624331 5.82547699,17.8126284 8.10774625,21.1322928 C10.3897892,17.8121759 14.6314569,11.0608493 14.6314569,8.2500402 C14.6314569,4.65298294 11.7048035,1.72632955 8.10774625,1.72632955 M8.10774625,23.3046004 C7.85230043,23.3046004 7.61246644,23.1812896 7.46381462,22.9735843 C7.44526143,22.9477908 5.59469335,20.3562262 3.76991873,17.3028681 C1.26840502,13.1166338 0,10.0707422 0,8.2500402 C0,3.77962522 3.63710501,0.142520214 8.10774625,0.142520214 C12.5783875,0.142520214 16.2152662,3.77962522 16.2152662,8.2500402 C16.2152662,10.0707422 14.9470875,13.1166338 12.4453475,17.3028681 C10.6205729,20.356 8.77023106,22.9477908 8.75190413,22.9735843 C8.60302605,23.1812896 8.36319206,23.3046004 8.10774625,23.3046004" id="Fill-1" fill="#1A4780" opacity="0.641021286" mask="url(#mask-2)"></path>
                </g>
                <path d="M8.17999058,5.76536012 C6.92719739,5.76536012 5.90812921,6.78442829 5.90812921,8.03744774 C5.90812921,9.29001466 6.92719739,10.3093091 8.17999058,10.3093091 C9.43278376,10.3093091 10.4518519,9.29001466 10.4518519,8.03744774 C10.4518519,6.78442829 9.43278376,5.76536012 8.17999058,5.76536012 M8.17999058,11.8931184 C6.05406593,11.8931184 4.32431988,10.1633724 4.32431988,8.03744774 C4.32431988,5.91129683 6.05406593,4.18155078 8.17999058,4.18155078 C10.3059152,4.18155078 12.0356613,5.91129683 12.0356613,8.03744774 C12.0356613,10.1633724 10.3059152,11.8931184 8.17999058,11.8931184" id="Fill-4" fill="#1A4780" opacity="0.641021286"></path>
            </g>
        </g>
    </g>
</svg>