<?xml version="1.0" encoding="UTF-8"?>
<svg width="24px" height="24px" viewBox="0 0 24 24" version="1.1" xmlns="http://www.w3.org/2000/svg" xmlns:xlink="http://www.w3.org/1999/xlink">
    <!-- Generator: Sketch 61.2 (89653) - https://sketch.com -->
    <title>Administration</title>
    <desc>Created with Sketch.</desc>
    <g id="Administration" stroke="none" stroke-width="1" fill="none" fill-rule="evenodd">
        <path d="M11.156356,2.20799969 L11.1565416,2.20762365 L8.1185416,8.36736631 L7.59844213,8.44319191 L1.32075488,9.35841914 C1.01545809,9.40269882 0.892386184,9.78195231 1.11466611,9.99838288 L6.03263507,14.7907273 L5.94355873,15.3091515 L4.86959079,21.5596435 C4.81732972,21.8650804 5.14028561,22.0978179 5.41214671,21.9536918 L11.4927397,18.7575422 L11.9580116,19.0021036 L17.5734929,21.9537759 C17.8447263,22.0964073 18.16795,21.863913 18.1160067,21.5603316 L16.9528444,14.7907273 L17.3295781,14.4236169 L21.8710971,9.99810654 C22.0930933,9.78195231 21.9700214,9.40269882 21.6639955,9.35831311 L14.8669379,8.36736631 L14.6344503,7.89598268 L11.8298498,2.20946778 C11.691839,1.93108702 11.2937203,1.92977885 11.156356,2.20799969 Z" id="Path-Copy-10" stroke="#FFFFFF" stroke-width="2" fill-rule="nonzero"></path>
    </g>
</svg>