<?xml version="1.0" encoding="UTF-8"?>
<svg width="24px" height="24px" viewBox="0 0 24 24" version="1.1" xmlns="http://www.w3.org/2000/svg" xmlns:xlink="http://www.w3.org/1999/xlink">
    <!-- Generator: Sketch 61.2 (89653) - https://sketch.com -->
    <title>Matches</title>
    <desc>Created with Sketch.</desc>
    <g id="Matches" stroke="none" stroke-width="1" fill="none" fill-rule="evenodd">
        <g id="Group-4-Copy-5" transform="translate(2.000000, 3.000000)">
            <path d="M19.9550715,3.47696013 L18.7098566,0.375135029 C18.6481732,0.222704632 18.5254276,0.102353443 18.3707981,0.0426906163 C18.2166505,-0.0199053399 18.0426561,-0.0134101153 17.8937157,0.0605001384 L10.137377,3.76191248 L11.232566,5.49834089 L9.90633708,6.30273764 L8.72713354,4.44757909 C6.56075962,5.47756312 4.96148357,6.2285313 4.79645509,6.29976939 C3.98591172,6.61734257 3.25116723,7.09853544 2.63908272,7.71265814 C2.60915496,7.73631517 2.58198291,7.76319505 2.55806874,7.79280099 C0.389866454,10.0356385 0.205737547,13.5098819 2.1249715,15.9647128 C4.04420545,18.4195437 7.48968415,19.1167888 10.2292248,17.604732 C12.9687654,16.0926751 14.1785818,12.8259953 13.074884,9.92103888 L19.7930436,4.15075372 C19.9876195,3.98382303 20.0528209,3.71268299 19.9550715,3.47696013 Z M8.22604705,14.836467 C7.2451837,15.2208819 6.13151647,15.0584384 5.30455303,14.4103273 C4.47758958,13.7622163 4.06296536,12.7269011 4.21686528,11.6943752 C4.3707652,10.6618492 5.06980821,9.78897763 6.05067157,9.40456274 C6.39686959,9.26672684 6.76667504,9.19618131 7.13985957,9.19678114 C7.5414146,9.19749334 7.93859452,9.27930731 8.30706103,9.43721353 C9.02762001,9.74073864 9.59431284,10.3184554 9.87933242,11.0400705 C10.1696169,11.7603359 10.1584692,12.5652283 9.84834611,13.277356 C9.53822301,13.9894836 8.95457995,14.550394 8.22604705,14.836467 L8.22604705,14.836467 Z" id="Shape" fill="#FFFFFF" fill-rule="nonzero"></path>
            <circle id="Oval" fill="#323B62" cx="1.66666667" cy="16.6666667" r="1.66666667"></circle>
            <circle id="Oval-Copy" fill="#F5F8FB" cx="1.66666667" cy="16.6666667" r="1"></circle>
        </g>
    </g>
</svg>