<?xml version="1.0" encoding="UTF-8"?>
<svg width="24px" height="24px" viewBox="0 0 24 24" version="1.1" xmlns="http://www.w3.org/2000/svg" xmlns:xlink="http://www.w3.org/1999/xlink">
    <!-- Generator: Sketch 61.2 (89653) - https://sketch.com -->
    <title>Player injuries</title>
    <desc>Created with Sketch.</desc>
    <g id="Player-injuries" stroke="none" stroke-width="1" fill="none" fill-rule="evenodd">
        <g id="Group-17-Copy-5" transform="translate(1.000000, 1.000000)" fill="#FFFFFF" fill-rule="nonzero">
            <path d="M18.7827919,11.000112 L20.6622575,9.12042246 C22.4499435,7.33296025 22.4499435,4.42444471 20.6622575,2.6369825 L19.3659276,1.34042881 C17.5789131,-0.447033462 14.6699499,-0.446585729 12.8824876,1.34042881 L11.0027982,3.22011825 L9.12310872,1.34042881 C7.33609419,-0.447033462 4.42668324,-0.446585729 2.6396687,1.34042881 L1.34333885,2.6369825 C-0.444347202,4.42444471 -0.444347202,7.33296025 1.34333885,9.12042246 L3.22280445,11.000112 L1.34333885,12.8795775 C0.477253534,13.7456629 0,14.8969363 0,16.1214095 C0,17.3454349 0.477253534,18.4969322 1.34333885,19.3625699 L2.64011638,20.6595712 C3.53373556,21.5529666 4.70784198,22 5.88194834,22 C7.05605469,22 8.23016111,21.5529666 9.1235564,20.6595712 L11.0032458,18.7798818 L12.8829353,20.6595712 C13.7763307,21.5529666 14.950437,22 16.1245434,22 C17.2986498,22 18.4727561,21.5529666 19.366823,20.6595712 L20.6631529,19.3625699 C21.5296859,18.4964845 22.0064917,17.3454349 22.0064917,16.1214095 C22.0064917,14.8969363 21.5292382,13.7456629 20.6631529,12.8795775 L18.7827919,11.000112 Z M2.6396687,3.93353619 L3.93622239,2.6369825 C4.47257298,2.10107958 5.17726066,1.83290431 5.8815006,1.83290431 C6.58618833,1.83290431 7.29020444,2.10107958 7.82655503,2.6369825 L9.7057968,4.51667194 L4.51935814,9.70311054 L2.6396687,7.82386877 C1.56741519,6.75116758 1.56741519,5.00623738 2.6396687,3.93353619 Z M7.82655503,19.3630175 C6.75430152,20.4357187 5.00892358,20.4348233 3.93667007,19.3630175 L2.6396687,18.0660162 C2.1203309,17.5462306 1.83379969,16.8554218 1.83379969,16.1214095 C1.83379969,15.3865017 2.1203309,14.6959167 2.6396687,14.1761312 L5.16763499,11.6481649 L11.651075,5.16494878 L14.1790413,2.6369825 C14.7153919,2.10107958 15.4198557,1.83290431 16.1240957,1.83290431 C16.8283357,1.83290431 17.5330233,2.10107958 18.0693739,2.6369825 L19.3659276,3.93353619 C20.4381811,5.00623738 20.4381811,6.75116758 19.3659276,7.82386877 L16.838409,10.3513874 C16.838409,10.3513874 16.838409,10.3513874 16.8379613,10.3513874 L13.5963532,13.5929954 L7.82655503,19.3630175 Z M19.36548,18.0660162 L18.0689263,19.3630175 C16.9962251,20.435271 15.2512948,20.4348233 14.1783697,19.3630175 L12.2993519,17.4833281 L16.5650851,13.2171471 L17.4857905,12.2964418 L19.3650322,14.1761312 C19.8852654,14.6959167 20.1717966,15.3865017 20.1717966,16.1214095 C20.1717966,16.8554218 19.8852654,17.5462306 19.36548,18.0660162 Z" id="Shape"></path>
            <path d="M12.2993519,7.75828 C11.9416355,7.40033984 11.3602906,7.40033984 11.0027982,7.75828 L10.6786597,8.08241843 C10.3207196,8.44058243 10.3207196,9.02080811 10.6786597,9.37897212 C10.8575179,9.55827795 11.0921153,9.64759512 11.3269366,9.64759512 C11.5617578,9.64759512 11.7963553,9.55827795 11.9752134,9.37897212 L12.2993519,9.05483369 C12.657292,8.69711742 12.657292,8.11644401 12.2993519,7.75828 Z" id="Path"></path>
            <path d="M9.38165838,10.6759735 C9.02416589,10.3178095 8.44282095,10.3178095 8.08532852,10.6759735 L7.7611901,11.000112 C7.4030261,11.3580521 7.4030261,11.9385016 7.7611901,12.2964418 C7.93982437,12.4757477 8.17464569,12.5650648 8.40924311,12.5650648 C8.64406437,12.5650648 8.87888563,12.4757477 9.05751995,12.2964418 L9.38165838,11.9723033 C9.74027005,11.6143632 9.74027005,11.0339136 9.38165838,10.6759735 Z" id="Path"></path>
            <path d="M13.9202678,11.3240265 L14.2444062,11.000112 C14.6025702,10.641948 14.6025702,10.0614984 14.2444062,9.70355827 C13.8869138,9.34539427 13.3055689,9.34539427 12.9480764,9.70355827 L12.623938,10.0276967 C12.265774,10.3856368 12.265774,10.9660864 12.623938,11.3240265 C12.8025723,11.5033324 13.0373935,11.5928734 13.2722148,11.5928734 C13.5068122,11.5928734 13.7416335,11.5033324 13.9202678,11.3240265 Z" id="Path"></path>
            <path d="M10.0303829,12.6210279 L9.70624447,12.9451663 C9.34830431,13.3033303 9.34830431,13.883556 9.70624447,14.24172 C9.88510264,14.4210259 10.1199239,14.510343 10.3545213,14.510343 C10.5893426,14.510343 10.82394,14.4210259 11.0027982,14.24172 L11.3269366,13.9175816 C11.6848768,13.5594176 11.6848768,12.9791919 11.3269366,12.6210279 C10.9692203,12.2630877 10.3880992,12.2630877 10.0303829,12.6210279 Z" id="Path"></path>
        </g>
    </g>
</svg>