<?xml version="1.0" encoding="UTF-8"?>
<svg width="24px" height="24px" viewBox="0 0 24 24" version="1.1" xmlns="http://www.w3.org/2000/svg" xmlns:xlink="http://www.w3.org/1999/xlink">
    <!-- Generator: Sketch 61.2 (89653) - https://sketch.com -->
    <title>Trainings</title>
    <desc>Created with Sketch.</desc>
    <g id="Trainings" stroke="none" stroke-width="1" fill="none" fill-rule="evenodd">
        <g id="Group-Copy-9" transform="translate(4.000000, 2.000000)" fill="#FFFFFF" fill-rule="nonzero">
            <path d="M14.7596875,4.97 C14.7596875,4.97 15.07625,5.2884375 15.299375,4.970625 L15.7253125,4.3603125 C15.8740625,4.145625 15.681875,3.9971875 15.6621875,3.9825 L13.079375,2.1778125 L13.07875,2.1778125 C12.9196875,2.0671875 12.8140625,2.134375 12.75875,2.1965625 L12.7125,2.263125 L12.3190625,2.82625 C12.3171875,2.8284375 12.0971875,3.1759375 12.4490625,3.3596875 L12.4490625,3.36 C12.9521875,3.6075 13.875,4.129375 14.7590625,4.971875 L14.7596875,4.97 Z" id="Path"></path>
            <path d="M10.41375,0 L6.34375,0 C6.0278125,0 5.7690625,0.25375 5.7690625,0.5746875 L5.7690625,1.0490625 C5.7690625,1.3696875 6.0278125,1.6284375 6.34375,1.6284375 L6.545,1.6284375 L6.545,1.9634375 C6.5453125,2.445 6.849375,2.485 7.001875,2.4746875 C7.0278125,2.4709375 7.0546875,2.466875 7.083125,2.463125 C7.0834375,2.463125 7.0871875,2.4621875 7.0871875,2.4621875 L7.086875,2.4621875 C7.62875,2.388125 8.5259375,2.3171875 9.555,2.448125 L9.555625,2.4471875 C9.555625,2.4471875 10.2146875,2.569375 10.2128125,1.963125 L10.2128125,1.628125 L10.4140625,1.628125 C10.7303125,1.628125 10.98875,1.3696875 10.98875,1.04875 L10.98875,0.5746875 C10.9884375,0.2540625 10.7296875,0 10.41375,0 Z" id="Path"></path>
            <path d="M8.37875,3.196875 C3.75125,3.196875 0,6.9484375 0,11.5765625 C0,16.20375 3.75125,19.9553125 8.37875,19.9553125 C13.0065625,19.9553125 16.7575,16.2034375 16.7575,11.5765625 C16.7575,6.9484375 13.0065625,3.196875 8.37875,3.196875 Z M8.9153125,11.5740625 C8.423125,11.5746875 8.38125,11.2321875 8.37875,11.1334375 L8.37875,5.33875 C8.393125,5.1371875 8.4978125,4.7575 9.08125,4.855625 C9.0928125,4.8571875 9.10375,4.8584375 9.1159375,4.86 C9.1534375,4.86625 9.18875,4.87125 9.2159375,4.8734375 C10.9159375,5.1121875 14.645,6.2178125 15.1109375,11.230625 C15.0978125,11.37 15.01875,11.573125 14.6696875,11.5753125 C11.6690625,11.566875 9.770625,11.570625 8.9153125,11.5740625 Z" id="Shape"></path>
        </g>
    </g>
</svg>