<?xml version="1.0" encoding="UTF-8"?>
<svg width="24px" height="24px" viewBox="0 0 24 24" version="1.1" xmlns="http://www.w3.org/2000/svg" xmlns:xlink="http://www.w3.org/1999/xlink">
    <!-- Generator: Sketch 61.2 (89653) - https://sketch.com -->
    <title>dnevna</title>
    <desc>Created with Sketch.</desc>
    <g id="dnevna" stroke="none" stroke-width="1" fill="none" fill-rule="evenodd">
        <g id="Group-4-Copy">
            <circle id="Oval" stroke="#46506C" cx="12" cy="12" r="4.5"></circle>
            <g id="sun" fill="#FFFFFF" fill-rule="nonzero">
                <path d="M8.82058951,20.422304 C9.80916289,20.7956803 10.8807207,21 12,21 C13.1145996,21 14.181876,20.7973853 15.1670066,20.4269784 L12.7955127,23.5921017 C12.3954857,24.1045479 11.5957346,24.1045479 11.1958087,23.5921017 L11.1958087,23.5921017 Z M20.209181,15.6944997 L20.7689047,19.6180705 C20.8438845,20.2678619 20.2815864,20.8427745 19.631694,20.7552812 L19.631694,20.7552812 L15.723341,20.1961194 C17.7108636,19.2917801 19.3116309,17.6857529 20.209181,15.6944997 Z M11.1832952,0.384284177 C11.5832212,-0.128061081 12.3830732,-0.128061081 12.7829992,0.384284177 L12.7829992,0.384284177 L15.1576292,3.55856432 C15.3324139,3.6211316 15.5075013,3.6961114 15.6698735,3.77109122 L15.6698735,3.77109122 L19.6066671,3.20869214 C20.2564586,3.13381325 20.831472,3.6961114 20.7439787,4.34610469 L20.7439787,4.34610469 L20.18604,8.25458619 C18.7650137,5.15382873 15.6340337,3 12,3 C7.02943725,3 3,7.02943725 3,12 C3,15.6418752 5.16313386,18.7785234 8.27467192,20.195215 L4.35972819,20.7552812 C3.69722147,20.8427745 3.1349233,20.2678619 3.22241658,19.6180705 L3.22241658,19.6180705 L3.78471475,15.6812769 C3.70973492,15.5062904 3.63485603,15.3438173 3.57238967,15.1688307 L3.57238967,15.1688307 L0.385495156,12.7818891 C-0.12695101,12.3818622 -0.12695101,11.5821111 0.385495156,11.1820842 L0.385495156,11.1820842 L3.55987621,8.80765609 C3.62244349,8.63266954 3.69722147,8.45768298 3.7723022,8.2952099 L3.7723022,8.2952099 L3.20990312,4.3584163 C3.1349233,3.70862488 3.69722147,3.13371232 4.34721476,3.2212056 L4.34721476,3.2212056 L8.28390743,3.78360468 C8.45879305,3.70862488 8.62136706,3.63364505 8.79625268,3.57107778 L8.79625268,3.57107778 Z M12,5 C15.8659932,5 19,8.13400675 19,12 C19,15.8659932 15.8659932,19 12,19 C8.13400675,19 5,15.8659932 5,12 C5,8.13400675 8.13400675,5 12,5 Z M20.4198029,8.81397538 L23.5807993,11.1820842 C24.0932454,11.5821111 24.0932454,12.3818622 23.6059271,12.7818891 L23.6059271,12.7818891 L20.4288597,15.1619984 C20.7980713,14.1782592 21,13.1127111 21,12 C21,10.8782241 20.7947678,9.80438267 20.4198029,8.81397538 Z" id="Combined-Shape"></path>
            </g>
        </g>
    </g>
</svg>