<?xml version="1.0" encoding="UTF-8"?>
<svg width="24px" height="24px" viewBox="0 0 24 24" version="1.1" xmlns="http://www.w3.org/2000/svg" xmlns:xlink="http://www.w3.org/1999/xlink">
    <!-- Generator: Sketch 61.2 (89653) - https://sketch.com -->
    <title>nocna</title>
    <desc>Created with Sketch.</desc>
    <g id="nocna" stroke="none" stroke-width="1" fill="none" fill-rule="evenodd">
        <g id="Group-9-Copy" transform="translate(0.000000, 1.000000)" fill="#FFFFFF">
            <g id="Group-7">
                <path d="M10.8110846,22 C15.5224879,22 19.5277634,18.8541289 20.9666893,14.5081406 C21.0565853,14.2366211 20.960169,13.9371289 20.7300653,13.7731172 C20.4999196,13.6091055 20.1914882,13.6199766 19.9729949,13.7998438 C18.612523,14.9197383 16.9717622,15.5117188 15.2280646,15.5117188 C11.029662,15.5117188 7.61403231,12.0420781 7.61403231,7.77734375 C7.61403231,5.14030859 8.98897511,2.61718359 11.2023028,1.19268359 C11.4396839,1.03988672 11.5497719,0.745378906 11.4724958,0.469863281 C11.396692,0.199632813 11.1585116,0.0113867188 10.8846588,0.00313671875 C10.8696832,0.0019765625 10.8430551,0 10.8110846,0 C4.88501169,0 0,4.93955859 0,11 C0,17.05825 4.88257184,22 10.8110846,22 Z" id="Shape" fill-rule="nonzero" transform="translate(10.500000, 11.000000) scale(-1, 1) translate(-10.500000, -11.000000) "></path>
                <g id="Group-6" transform="translate(3.000000, 8.000000)">
                    <path d="M3.9375,0.226683315 C4.35600605,0.468307893 4.49939681,1.0034495 4.25777223,1.42195554 L2.50777223,4.45304446 C2.26614765,4.8715505 1.73100605,5.01494126 1.3125,4.77331668 C0.893993954,4.53169211 0.750603194,3.9965505 0.992227772,3.57804446 L2.74222777,0.546955543 C2.98385235,0.128449498 3.51899395,-0.014941263 3.9375,0.226683315 Z" id="Rectangle"></path>
                    <path d="M0.351683315,1.1875 C0.593307893,0.768993954 1.1284495,0.625603194 1.54695554,0.867227772 L4.57804446,2.61722777 C4.9965505,2.85885235 5.13994126,3.39399395 4.89831668,3.8125 C4.65669211,4.23100605 4.1215505,4.37439681 3.70304446,4.13277223 L0.671955543,2.38277223 C0.253449498,2.14114765 0.110058737,1.60600605 0.351683315,1.1875 Z" id="Rectangle-Copy"></path>
                </g>
                <g id="Group-6-Copy-2" transform="translate(6.000000, 2.000000)">
                    <path d="M2.25,0.700961894 C2.48914631,0.839033082 2.57108389,1.14482828 2.4330127,1.3839746 L1.4330127,3.1160254 C1.29494151,3.35517172 0.989146312,3.43710929 0.75,3.29903811 C0.510853688,3.16096692 0.428916111,2.85517172 0.566987298,2.6160254 L1.5669873,0.883974596 C1.70505849,0.644828284 2.01085369,0.562890707 2.25,0.700961894 Z" id="Rectangle"></path>
                    <path d="M0.200961894,1.25 C0.339033082,1.01085369 0.644828284,0.928916111 0.883974596,1.0669873 L2.6160254,2.0669873 C2.85517172,2.20505849 2.93710929,2.51085369 2.79903811,2.75 C2.66096692,2.98914631 2.35517172,3.07108389 2.1160254,2.9330127 L0.383974596,1.9330127 C0.144828284,1.79494151 0.0628907069,1.48914631 0.200961894,1.25 Z" id="Rectangle-Copy"></path>
                </g>
                <g id="Group-6-Copy-3" transform="translate(20.000000, 18.000000)">
                    <path d="M2.8125,0.876202368 C3.11143289,1.04879135 3.21385486,1.43103536 3.04126588,1.72996825 L1.79126588,3.89503175 C1.61867689,4.19396464 1.23643289,4.29638662 0.9375,4.12379763 C0.63856711,3.95120865 0.536145138,3.56896464 0.708734123,3.27003175 L1.95873412,1.10496825 C2.13132311,0.806035356 2.51356711,0.703613384 2.8125,0.876202368 Z" id="Rectangle"></path>
                    <path d="M0.251202368,1.5625 C0.423791352,1.26356711 0.806035356,1.16114514 1.10496825,1.33373412 L3.27003175,2.58373412 C3.56896464,2.75632311 3.67138662,3.13856711 3.49879763,3.4375 C3.32620865,3.73643289 2.94396464,3.83885486 2.64503175,3.66626588 L0.479968245,2.41626588 C0.181035356,2.24367689 0.0786133836,1.86143289 0.251202368,1.5625 Z" id="Rectangle-Copy"></path>
                </g>
            </g>
        </g>
    </g>
</svg>