<?xml version="1.0" encoding="UTF-8"?>
<svg width="24px" height="24px" viewBox="0 0 24 24" version="1.1" xmlns="http://www.w3.org/2000/svg" xmlns:xlink="http://www.w3.org/1999/xlink">
    <!-- Generator: Sketch 61.2 (89653) - https://sketch.com -->
    <title>home</title>
    <desc>Created with Sketch.</desc>
    <g id="home" stroke="none" stroke-width="1" fill="none" fill-rule="evenodd">
        <g id="Group" fill="#FFFFFF">
            <path d="M12.5295613,0.184950719 L23.6724185,9.02585677 C23.8792388,9.18995105 24,9.44084788 24,9.7064493 L24,23.1344568 C24,23.6124831 23.6162441,24 23.1428571,24 L0.857142857,24 C0.383755929,24 0,23.6124831 0,23.1344568 L0,9.7064493 C0,9.44084788 0.120761193,9.18995105 0.327581527,9.02585677 L11.4704387,0.184950719 C11.7812484,-0.0616502398 12.2187516,-0.0616502398 12.5295613,0.184950719 Z M15.5,18 L8.5,18 C7.67157288,18 7,18.6715729 7,19.5 C7,20.3284271 7.67157288,21 8.5,21 L8.5,21 L15.5,21 C16.3284271,21 17,20.3284271 17,19.5 C17,18.6715729 16.3284271,18 15.5,18 L15.5,18 Z" id="Combined-Shape"></path>
        </g>
    </g>
</svg>