<?xml version="1.0" encoding="UTF-8"?>
<svg width="24px" height="24px" viewBox="0 0 24 24" version="1.1" xmlns="http://www.w3.org/2000/svg" xmlns:xlink="http://www.w3.org/1999/xlink">
    <!-- Generator: Sketch 61.2 (89653) - https://sketch.com -->
    <title>Catapult</title>
    <desc>Created with Sketch.</desc>
    <g id="Catapult" stroke="none" stroke-width="1" fill="none" fill-rule="evenodd">
        <g id="Group-Copy-9" transform="translate(1.000000, 1.000000)" fill="#FFFFFF" fill-rule="nonzero">
            <polygon id="Path" points="7.57860227 17.2312745 4.9343715 14.5870437 4.9343715 10.1799924 11.9856536 17.2312745"></polygon>
            <path d="M21.6626568,0.502989225 C20.3682023,-0.903783739 13.7484741,0.48447961 7.57860227,6.6543514 C4.94318561,9.28976807 4.9343715,13.7056335 6.69719202,15.468454 C8.46001253,17.2312745 12.8758779,17.2224604 15.5112946,14.5870437 C21.6811664,8.41717192 22.9571113,1.90976219 21.6626568,0.502989225 Z M11.9856536,7.53576166 C11.9856536,6.07482416 13.1689468,4.89153089 14.6298843,4.89153089 C16.0908218,4.89153089 17.2741151,6.07482416 17.2741151,7.53576166 C17.2741151,8.99669916 16.0908218,10.1799924 14.6298843,10.1799924 C13.1689468,10.1799924 11.9856536,8.99669916 11.9856536,7.53576166 Z" id="Shape"></path>
            <path d="M14.4632978,14.3014668 C14.4632978,14.3014668 15.1305254,17.6367232 13.7960702,18.9702969 C11.7952689,20.9710982 9.05584586,21.9577125 8.46001253,21.6383258 C8.06279031,21.4254013 8.35659373,19.3687773 9.34142279,15.468454 L14.4632978,14.3014668 Z" id="Path"></path>
            <path d="M6.7018569,7.53576166 C6.7018569,7.53576166 7.36908446,10.8710181 6.03462933,12.2045918 C4.03382805,14.2053931 1.29440497,15.1920074 0.698571639,14.8726206 C0.301349417,14.6596961 0.595152836,12.6030722 1.5799819,8.70274884 L6.7018569,7.53576166 Z" id="Path-Copy" transform="translate(3.697992, 11.233754) scale(-1, 1) rotate(-90.000000) translate(-3.697992, -11.233754) "></path>
            <path d="M6.29350612,17.530954 C6.25384266,17.5873642 6.23004458,17.6525886 6.17892279,17.702829 C5.31954779,18.562204 4.03004458,18.1329572 4.03004458,18.1329572 C4.03004458,18.1329572 3.59991638,16.843454 4.46017279,15.984079 C4.51129458,15.9329572 4.57563753,15.9100405 4.63204779,15.8694956 L4.2292433,15.4658097 C3.8943074,15.5539508 3.5761183,15.7214187 3.31433945,15.9831976 C2.11033304,17.187204 1.58496121,19.1447648 2.30159907,19.8614027 C3.01823693,20.5780405 4.9599324,20.0685341 6.1798042,18.8486623 C6.44158304,18.5868835 6.60905099,18.2686944 6.69719202,17.9337585 L6.29350612,17.530954 Z" id="Path"></path>
        </g>
    </g>
</svg>