<?xml version="1.0" encoding="UTF-8"?>
<svg width="24px" height="24px" viewBox="0 0 24 24" version="1.1" xmlns="http://www.w3.org/2000/svg" xmlns:xlink="http://www.w3.org/1999/xlink">
    <!-- Generator: Sketch 61.2 (89653) - https://sketch.com -->
    <title>Players</title>
    <desc>Created with Sketch.</desc>
    <g id="Players" stroke="none" stroke-width="1" fill="none" fill-rule="evenodd">
        <g id="Group-17-Copy-5" transform="translate(1.000000, 2.000000)" fill="#FFFFFF" fill-rule="nonzero">
            <rect id="Rectangle" x="12.3747406" y="11.0002254" width="1.37502817" height="4.12508452"></rect>
            <path d="M21.6933065,4.24058689 L17.568222,1.49053054 C17.4554697,1.41490399 17.323467,1.37502817 17.1873392,1.37502817 L14.7219137,1.37502817 L13.5490146,0.200754113 C13.419762,0.0728764932 13.2451334,0 13.0622547,0 L8.93717015,0 C8.7542914,0 8.57966282,0.0728764932 8.45041017,0.200754113 L7.27751114,1.37502817 L4.81208563,1.37502817 C4.67595784,1.37502817 4.54395513,1.41490399 4.43120282,1.49053054 L0.306118302,4.24058689 C0.0476130058,4.41246541 -0.0623892481,4.73559703 0.0352377523,5.02985306 L1.41026593,9.15493758 C1.47214219,9.34331644 1.61514512,9.49594457 1.7993989,9.57294614 C1.98365267,9.64857269 2.19128193,9.64169755 2.37003559,9.55232072 L4.12457154,8.67505275 L4.12457154,19.9379085 C4.12457154,20.3174163 4.43257785,20.6254226 4.81208563,20.6254226 L17.1873392,20.6254226 C17.566847,20.6254226 17.8748533,20.3174163 17.8748533,19.9379085 L17.8748533,8.67505275 L19.6293892,9.55232072 C19.8081429,9.64169755 20.0130221,9.64857269 20.2000259,9.57294614 C20.3842797,9.49594457 20.5259076,9.34331644 20.5891589,9.15493758 L21.9641871,5.02985306 C22.0631891,4.73559703 21.9518118,4.41246541 21.6933065,4.24058689 Z M9.22180098,1.37502817 L12.7776238,1.37502817 L13.4087618,2.00616611 L10.9997124,3.93258058 L8.59066305,2.00616611 L9.22180098,1.37502817 Z M9.62468423,15.812824 C9.62468423,16.1923318 9.31667792,16.5003381 8.93717015,16.5003381 C8.55766237,16.5003381 8.24965606,16.1923318 8.24965606,15.812824 L8.24965606,11.0002254 L7.56214197,11.0002254 C7.1826342,11.0002254 6.87462789,10.6922191 6.87462789,10.3127113 C6.87462789,9.9318285 7.1826342,9.62519722 7.56214197,9.62519722 L8.93717015,9.62519722 C9.31667792,9.62519722 9.62468423,9.93320353 9.62468423,10.3127113 L9.62468423,15.812824 Z M15.1247969,15.812824 C15.1247969,16.1923318 14.8167906,16.5003381 14.4372828,16.5003381 L11.6872265,16.5003381 C11.3077187,16.5003381 10.9997124,16.1923318 10.9997124,15.812824 L10.9997124,10.3127113 C10.9997124,9.93320353 11.3077187,9.62519722 11.6872265,9.62519722 L14.4372828,9.62519722 C14.8167906,9.62519722 15.1247969,9.93320353 15.1247969,10.3127113 L15.1247969,15.812824 Z" id="Shape"></path>
        </g>
    </g>
</svg>