<?xml version="1.0" encoding="UTF-8"?>
<svg width="24px" height="24px" viewBox="0 0 24 24" version="1.1" xmlns="http://www.w3.org/2000/svg" xmlns:xlink="http://www.w3.org/1999/xlink">
    <!-- Generator: Sketch 61.2 (89653) - https://sketch.com -->
    <title>Tactical elements</title>
    <desc>Created with Sketch.</desc>
    <g id="Tactical-elements" stroke="none" stroke-width="1" fill="none" fill-rule="evenodd">
        <g id="Group-18-Copy-3" transform="translate(4.000000, 1.000000)" fill="#FFFFFF" fill-rule="nonzero">
            <circle id="Oval" cx="4.94136616" cy="17.0585938" r="1.07421875"></circle>
            <path d="M16.0841943,1.98219141 C15.637706,1.53523047 15.0439208,1.2890625 14.4121943,1.2890625 L13.9843974,1.2890625 L13.9843974,2.1484375 C13.9843974,3.09615625 13.2133662,3.8671875 12.2656474,3.8671875 L4.53127241,3.8671875 C3.58355366,3.8671875 2.81252241,3.09615625 2.81252241,2.1484375 L2.81252241,1.2890625 L2.38094428,1.2890625 C1.07929194,1.2890625 0.0191239681,2.34807031 0.0176630306,3.64972266 L1.43414578e-06,19.6340977 C-0.000684625689,20.2658242 0.244795843,20.8599102 0.691241156,21.3068711 C1.13768647,21.753832 1.73151459,22 2.36324116,22 L14.3944912,22 C15.6961865,22 16.7563544,20.9409922 16.7577724,19.6393398 L16.775477,3.65496484 C16.776163,3.02319531 16.5306826,2.42910937 16.0841943,1.98219141 Z M2.57808491,17.0585938 C2.57808491,15.7554805 3.63825287,14.6953125 4.94136616,14.6953125 C6.24447944,14.6953125 7.30464741,15.7554805 7.30464741,17.0585938 C7.30464741,18.361707 6.24447944,19.421875 4.94136616,19.421875 C3.63825287,19.421875 2.57808491,18.361707 2.57808491,17.0585938 Z M10.0586865,6.49580078 C9.80697553,6.24413281 9.80697553,5.83601562 10.0586865,5.58430469 C10.3103544,5.33263672 10.7184716,5.33263672 10.9701826,5.58430469 L12.0336162,6.64773828 L13.0970497,5.58430469 C13.3487177,5.33263672 13.7568349,5.33263672 14.0085458,5.58430469 C14.2602568,5.83597266 14.2602568,6.24408984 14.0085458,6.49580078 L12.9451122,7.55923437 L14.0085458,8.62266797 C14.2602568,8.87433594 14.2602568,9.28245312 14.0085458,9.53416406 C13.8826904,9.66001953 13.7177333,9.72296875 13.5528193,9.72296875 C13.3879052,9.72296875 13.2229052,9.66001953 13.0970927,9.53416406 L12.0336591,8.47073047 L10.9702255,9.53416406 C10.8443701,9.66001953 10.679413,9.72296875 10.514499,9.72296875 C10.3495849,9.72296875 10.1845849,9.66001953 10.0587724,9.53416406 C9.80706147,9.28249609 9.80706147,8.87437891 10.0587724,8.62266797 L11.122206,7.55923437 L10.0586865,6.49580078 Z M4.30409662,5.78707422 C4.55576459,5.53540625 4.96388178,5.53540625 5.21559272,5.78707422 L6.74016694,7.31164844 C6.99187787,7.56331641 6.99187787,7.97143359 6.74016694,8.22314453 C6.61431147,8.349 6.44935444,8.41194922 6.28444037,8.41194922 C6.11952631,8.41194922 5.95452631,8.349 5.82871381,8.22314453 L5.40787787,7.80230859 L5.40787787,10.0283477 C5.40787787,10.8260625 5.90893647,11.5524492 6.65465912,11.8358281 L10.4008466,13.2593828 C11.6437177,13.7316523 12.4787294,14.9422969 12.4787294,16.2718359 L12.4787294,18.7773438 C12.4787294,19.1332969 12.1901513,19.421875 11.8341982,19.421875 C11.4782451,19.421875 11.1896669,19.1332969 11.1896669,18.7773438 L11.1896669,16.2718359 C11.1896669,15.4741211 10.6886513,14.7477344 9.94292866,14.4643555 L6.19674116,13.0408008 C4.95387006,12.5685312 4.11881537,11.3578867 4.11881537,10.0283477 L4.11881537,7.79534766 L3.69797944,8.21618359 C3.44631147,8.46785156 3.03819428,8.46785156 2.78648334,8.21618359 C2.53477241,7.96451563 2.53477241,7.55639844 2.78648334,7.3046875 L4.30409662,5.78707422 Z" id="Shape"></path>
            <path d="M4.10158491,2.1484375 C4.10158491,2.38575391 4.293956,2.578125 4.53127241,2.578125 L12.2656474,2.578125 C12.5029638,2.578125 12.6953349,2.38575391 12.6953349,2.1484375 L12.6953349,0.4296875 C12.6953349,0.192371094 12.5029638,0 12.2656474,0 L4.53127241,0 C4.293956,0 4.10158491,0.192371094 4.10158491,0.4296875 L4.10158491,2.1484375 Z" id="Path"></path>
        </g>
    </g>
</svg>