<?xml version="1.0" encoding="UTF-8"?>
<svg width="24px" height="24px" viewBox="0 0 24 24" version="1.1" xmlns="http://www.w3.org/2000/svg" xmlns:xlink="http://www.w3.org/1999/xlink">
    <!-- Generator: Sketch 61.2 (89653) - https://sketch.com -->
    <title>Training excersizes</title>
    <desc>Created with Sketch.</desc>
    <g id="Training-excersizes" stroke="none" stroke-width="1" fill="none" fill-rule="evenodd">
        <path d="M0,3 L0,20.15625 L24,20.15625 L24,3 L0,3 Z M11.296875,13.5790312 C10.471875,13.2882656 9.8788125,12.5013281 9.8788125,11.578125 C9.8788125,10.6549219 10.471875,9.86798438 11.296875,9.57721875 L11.296875,13.5790312 Z M12.703125,9.57721875 C13.528125,9.86798438 14.1211875,10.6549219 14.1211875,11.578125 C14.1211875,12.5013281 13.528125,13.2882656 12.703125,13.5790312 L12.703125,9.57721875 Z M1.40625,9.457125 L3.703125,9.457125 L3.703125,13.6990781 L1.40625,13.6990781 L1.40625,9.457125 Z M1.40625,15.105375 L5.109375,15.105375 L5.109375,8.050875 L1.40625,8.050875 L1.40625,4.40625 L11.296875,4.40625 L11.296875,8.12123437 C9.6875625,8.44804687 8.4725625,9.87379687 8.4725625,11.578125 C8.4725625,13.2824531 9.6875625,14.7082031 11.296875,15.0350156 L11.296875,18.75 L1.40625,18.75 L1.40625,15.105375 Z M12.703125,18.75 L12.703125,15.0350156 C14.3124375,14.7082031 15.5274375,13.2824531 15.5274375,11.578125 C15.5274375,9.87379687 14.3124375,8.44804687 12.703125,8.12123437 L12.703125,4.40625 L22.59375,4.40625 L22.59375,8.050875 L18.9155156,8.050875 L18.9155156,15.1053281 L22.59375,15.1053281 L22.59375,18.75 L12.703125,18.75 Z M22.59375,9.457125 L22.59375,13.6990781 L20.3217656,13.6990781 L20.3217656,9.457125 L22.59375,9.457125 Z" id="Shape-Copy-8" fill="#FFFFFF" fill-rule="nonzero"></path>
    </g>
</svg>