<?xml version="1.0" encoding="UTF-8"?>
<svg width="24px" height="24px" viewBox="0 0 24 24" version="1.1" xmlns="http://www.w3.org/2000/svg" xmlns:xlink="http://www.w3.org/1999/xlink">
    <!-- Generator: Sketch 61.2 (89653) - https://sketch.com -->
    <title>Agility hover</title>
    <desc>Created with Sketch.</desc>
    <g id="Agility-hover" stroke="none" stroke-width="1" fill="none" fill-rule="evenodd">
        <g id="noun_soccer-shoes_4030370-copy-3" transform="translate(0.000000, 6.000000)" fill="#FF4B00" fill-rule="nonzero">
            <path d="M23.438232,1.768112 C23.342232,0.976168 22.694288,0.376216 21.894336,0.336224 L21.814352,0.328216 C20.942432,0.30424 20.206488,0.928168 20.110496,1.792136 C19.926464,3.4 18.886568,4.151952 17.014744,4.02392 C16.694728,3.999944 16.390768,3.847992 16.174752,3.608 C15.990768,3.399992 15.894824,3.136024 15.894824,2.864008 L15.894824,2.776016 C16.038768,0.680168 14.766896,0.200232 14.214944,0.088224 C14.046928,0.05624 13.87896,0.072208 13.726952,0.144232 L11.047168,1.352144 L12.25508,3.679976 C12.45508,4.07192 12.30308,4.551896 11.911136,4.751896 C11.79112,4.815864 11.671144,4.847896 11.54312,4.847896 C11.255184,4.847896 10.975152,4.687888 10.83116,4.415912 L9.583256,2.008096 L8.599368,2.448088 L9.719288,4.623872 C9.919288,5.015864 9.767288,5.495848 9.375296,5.695848 C9.255328,5.759864 9.135304,5.78384 9.007328,5.78384 C8.719392,5.78384 8.43936,5.623832 8.295368,5.351856 L7.143464,3.104056 L6.143552,3.552 L7.183448,5.559864 C7.391456,5.951808 7.231448,6.439792 6.839456,6.639744 C6.727496,6.695752 6.599512,6.727736 6.471536,6.727736 C6.183496,6.727736 5.903568,6.567728 5.767584,6.2958 L4.687656,4.199952 L1.759872,5.519824 C0.687936,5.999808 0,7.071728 0,8.239648 C0,9.782912 1.167088,11.04624 2.67012,11.20708 L2.67012,11.927488 C2.67012,12.369624 3.02788,12.72744 3.470072,12.72744 C3.912208,12.72744 4.269976,12.369624 4.269976,11.927488 L4.269976,11.223384 L5.67456,11.223384 L5.67456,11.927488 C5.67456,12.369624 6.032376,12.72744 6.474512,12.72744 C6.916648,12.72744 7.274464,12.369624 7.274464,11.927488 L7.274464,11.223384 L8.679832,11.223384 L8.679832,11.927488 C8.679832,12.369624 9.037592,12.72744 9.479736,12.72744 C9.92192,12.72744 10.279688,12.369624 10.279688,11.927488 L10.279688,11.223384 L16.388624,11.223384 L16.388624,11.927488 C16.388624,12.369624 16.746384,12.72744 17.188576,12.72744 C17.630712,12.72744 17.98848,12.369624 17.98848,11.927488 L17.98848,11.223384 L19.393072,11.223384 L19.393072,11.927488 C19.393072,12.369624 19.750888,12.72744 20.193024,12.72744 C20.63516,12.72744 20.992976,12.369624 20.992976,11.927488 L20.992976,10.97436 C21.791808,10.694184 22.502888,10.190768 23.038288,9.50356 C23.838192,8.479584 24.158208,7.167672 23.926176,5.943792 L23.438232,1.768112 Z M12.807032,7.023728 L9.007328,8.447608 C8.919336,8.4876 8.823344,8.503616 8.727344,8.503616 C8.399368,8.503616 8.095408,8.303664 7.975392,7.983648 C7.82344,7.56768 8.0314,7.103768 8.447368,6.95176 L12.247072,5.527832 C12.65508,5.367824 13.119048,5.575832 13.271048,5.9918 C13.43096,6.407816 13.223048,6.86372 12.807032,7.023728 Z" id="Shape"></path>
        </g>
    </g>
</svg>