<?xml version="1.0" encoding="UTF-8"?>
<svg width="24px" height="24px" viewBox="0 0 24 24" version="1.1" xmlns="http://www.w3.org/2000/svg" xmlns:xlink="http://www.w3.org/1999/xlink">
    <!-- Generator: Sketch 61.2 (89653) - https://sketch.com -->
    <title>Medical record</title>
    <desc>Created with Sketch.</desc>
    <g id="Medical-record" stroke="none" stroke-width="1" fill="none" fill-rule="evenodd">
        <g id="Group-32-Copy-7" transform="translate(1.000000, 2.000000)">
            <path d="M1.55555531,4.55555556 C1.57222197,4.55533333 3.0944442,4.55555556 3.11111086,4.55555556 C3.11111086,4.55555556 20.166222,4.55555556 20.166222,4.55555556 C20.1828886,4.55555556 20.1495553,4.72711111 20.166222,4.72733333 L20.166222,3.17955556 C20.166222,2.27488889 19.4333331,1.542 18.5286664,1.542 L11.6217775,1.542 C11.2357775,1.542 10.8595553,1.42311111 10.5433331,1.202 L9.58733309,0.532888889 C9.09199975,0.186 8.50199975,0 7.89733309,0 L3.19311086,0 C2.75888864,0 2.34222197,0.172666667 2.03511086,0.479777778 C1.72822197,0.787111111 1.55555531,1.20333333 1.55555531,1.63755556 L1.55555531,4.72733333 L1.55555531,4.55555556 Z" id="Path" fill="#FFFFFF"></path>
            <rect id="Rectangle" fill="#323B62" x="3.11111086" y="2.66666667" width="15.5555556" height="3.77777778" rx="0.96969697"></rect>
            <path d="M21.7815823,7.332 C21.812249,6.87933333 21.6540268,6.43422222 21.344249,6.10266667 C21.0349157,5.77155556 20.6015823,5.58333333 20.1478046,5.58333333 L1.63736012,5.58333333 C1.18402679,5.58333333 0.750693454,5.77133333 0.441137899,6.10266667 C0.131137899,6.43444444 -0.0270843235,6.87977778 0.00380456543,7.33222222 C0.160026788,9.62688889 0.502471232,15.5748889 0.65024901,17.7444444 C0.708471232,18.6035556 1.42269345,19.2706667 2.28380457,19.2706667 L19.5013601,19.2706667 C20.3624712,19.2706667 21.0766935,18.6035556 21.1349157,17.7444444 C21.2826935,15.5748889 21.6253601,9.62688889 21.7815823,7.332 Z" id="Path" fill="#FFFFFF"></path>
            <g id="Group-31" transform="translate(6.888889, 8.027778)">
                <circle id="Oval" fill="#323B62" cx="4" cy="4" r="4"></circle>
                <path d="M5.75824176,3.2967033 L4.7032967,3.2967033 L4.7032967,2.24175824 C4.7032967,1.8533382 4.38842004,1.53846154 4,1.53846154 C3.61157996,1.53846154 3.2967033,1.8533382 3.2967033,2.24175824 L3.2967033,3.2967033 L2.24175824,3.2967033 C1.8533382,3.2967033 1.53846154,3.61157996 1.53846154,4 C1.53846154,4.38842004 1.8533382,4.7032967 2.24175824,4.7032967 L3.2967033,4.7032967 L3.2967033,5.75824176 C3.2967033,6.1466618 3.61157996,6.46153846 4,6.46153846 C4.38842004,6.46153846 4.7032967,6.1466618 4.7032967,5.75824176 L4.7032967,4.7032967 L5.75824176,4.7032967 C6.1466618,4.7032967 6.46153846,4.38842004 6.46153846,4 C6.46153846,3.61157996 6.1466618,3.2967033 5.75824176,3.2967033 Z" id="Path-Copy-5" fill="#FFFFFF"></path>
            </g>
        </g>
    </g>
</svg>