<?xml version="1.0" encoding="UTF-8"?>
<svg width="24px" height="24px" viewBox="0 0 24 24" version="1.1" xmlns="http://www.w3.org/2000/svg" xmlns:xlink="http://www.w3.org/1999/xlink">
    <!-- Generator: Sketch 61.2 (89653) - https://sketch.com -->
    <title>Technical elements</title>
    <desc>Created with Sketch.</desc>
    <g id="Technical-elements" stroke="none" stroke-width="1" fill="none" fill-rule="evenodd">
        <path d="M12,1 C5.9249349,1 1,5.9249349 1,12 C1,18.0750651 5.9249349,23 12,23 C18.0750651,23 23,18.0750651 23,12 C22.9931966,5.92779948 18.0722005,1.00680341 12,1 Z M12.3926269,4.17127277 L16.2166667,2.64265952 C16.650651,2.8390625 17.0704915,3.06536458 17.4731445,3.31995445 L17.4831705,3.32622069 C17.8788411,3.57687173 18.2569661,3.85419924 18.6150391,4.15623371 L18.6458333,4.1830892 C18.806429,4.31987306 18.9625488,4.46149091 19.1143717,4.60758466 C19.1335286,4.62638347 19.1535807,4.64428712 19.1727376,4.66344403 C19.331901,4.81884763 19.4860514,4.97908527 19.6351888,5.14397784 C19.6475423,5.15794271 19.6593587,5.17262367 19.6717122,5.18658854 C19.8025879,5.33321941 19.9284505,5.48504233 20.0505534,5.63937173 C20.0799153,5.67607424 20.1092774,5.7127767 20.1377441,5.74947917 C20.2702311,5.92099612 20.3984212,6.09555663 20.5194499,6.27566733 L19.7571126,9.51622722 L16.0064778,10.7666178 L12.3935222,7.87571615 L12.3926269,4.17127277 Z M3.86189778,5.7516276 C3.89036458,5.71492514 3.91936847,5.67822263 3.94873049,5.64169924 C4.06940104,5.48862306 4.19418944,5.33930663 4.32309569,5.19357098 C4.33706056,5.17817382 4.34995118,5.16241861 4.36373698,5.1470215 C4.51197917,4.98177083 4.6654134,4.82171222 4.82439778,4.66666667 C4.84265952,4.64876302 4.86092121,4.6299642 4.88007813,4.61349285 C5.03064778,4.46829427 5.1855143,4.32757159 5.34467775,4.19150388 L5.38138021,4.16070966 C5.73623049,3.86082358 6.11077472,3.58528646 6.50250653,3.33570966 L6.51682945,3.32657879 C6.91715493,3.07252604 7.3343099,2.84658201 7.76578778,2.65 L11.6073731,4.17127278 L11.6073731,7.87464195 L7.99423826,10.7650065 L4.2436035,9.51694337 L3.48126629,6.27638347 C3.60336913,6.09663087 3.73012694,5.92242841 3.86189778,5.7516276 Z M3.4200358,17.6265788 C3.31225587,17.4622233 3.20913087,17.2948242 3.11083987,17.1242025 L3.08702798,17.0830241 C2.9892741,16.9132975 2.89671222,16.7407064 2.8095215,16.5654297 L2.80647784,16.5598795 C2.62278646,16.1910644 2.46147462,15.8115071 2.32361652,15.4231771 L2.32361652,15.4195964 C2.25844725,15.236263 2.19900715,15.0484538 2.14404299,14.8595703 L2.12416993,14.7899251 C2.0738607,14.6125 2.02820639,14.4331055 1.98738608,14.2517415 C1.98380535,14.234017 1.97932945,14.2171875 1.97574867,14.199642 C1.88569337,13.7900065 1.82106117,13.3753581 1.78203125,12.957666 L4.0205241,10.271582 L7.74519858,11.5130208 L8.82622069,15.8367513 L7.05,18.2000326 L3.4200358,17.6265788 Z M14.4416992,21.9707194 C14.2583659,22.0161946 14.0701986,22.0554036 13.8820312,22.0906738 C13.8557129,22.0958659 13.8288574,22.1001628 13.8025391,22.1049967 C13.6423014,22.1336426 13.4802734,22.1581705 13.3178874,22.1782226 C13.2745606,22.1837728 13.2315918,22.189681 13.188444,22.1948731 C13.0376953,22.2124186 12.8855143,22.2256673 12.7329753,22.2365885 C12.6849935,22.2398112 12.6375488,22.2446452 12.589567,22.2476888 C12.3945964,22.2596842 12.1980143,22.2666667 12,22.2666667 C11.8186361,22.2666667 11.6383464,22.2618327 11.4591309,22.2523437 C11.4374674,22.2523437 11.4166992,22.248763 11.3950358,22.2471517 C11.2355143,22.2380208 11.076709,22.2260254 10.9182617,22.2106283 L10.9,22.2072266 C10.5528483,22.1696289 10.207666,22.1144857 9.86606444,22.042334 L7.69721681,18.6465495 L9.44550781,16.3153158 L14.5544922,16.3153158 L16.331429,18.6619466 L14.4416992,21.9707194 Z M22.0269368,14.2 C22.0231771,14.2175456 22.0188802,14.234554 22.0151205,14.2520996 C21.9741211,14.4332845 21.9284668,14.612679 21.8783366,14.7902832 L21.8586426,14.8599284 C21.8034993,15.0488118 21.7442383,15.2359049 21.67889,15.4199545 L21.67889,15.4235351 C21.5410319,15.8118652 21.3798991,16.1914225 21.1960286,16.5602376 L21.192985,16.5657878 C21.1052571,16.7412435 21.0128743,16.9138347 20.9154785,17.0833822 L20.8916667,17.1245606 C20.7939128,17.2957194 20.6909668,17.4627604 20.5830078,17.6262207 L16.9653972,18.1966309 L15.1768229,15.835319 L16.257308,11.5126628 L19.9819824,10.271224 L22.2204753,12.957308 C22.1816243,13.375179 22.1169922,13.7901856 22.0269368,14.2 L22.0269368,14.2 Z" id="Shape-Copy-8" fill="#FFFFFF" fill-rule="nonzero"></path>
    </g>
</svg>