<?xml version="1.0" encoding="UTF-8"?>
<svg width="24px" height="24px" viewBox="0 0 24 24" version="1.1" xmlns="http://www.w3.org/2000/svg" xmlns:xlink="http://www.w3.org/1999/xlink">
    <!-- Generator: Sketch 61.2 (89653) - https://sketch.com -->
    <title>Connections</title>
    <desc>Created with Sketch.</desc>
    <g id="Connections" stroke="none" stroke-width="1" fill="none" fill-rule="evenodd">
        <g id="link-solid-copy-2" fill="#3B5D99" fill-rule="nonzero">
            <path d="M15.3099609,8.69022656 C18.1106016,11.4937734 18.0721641,15.9885703 15.3268359,18.7491328 C15.3216797,18.7547578 15.3155859,18.7608516 15.3099609,18.7664766 L12.1599609,21.9164766 C9.38167969,24.6947578 4.86157031,24.6943828 2.08371094,21.9164766 C-0.694570313,19.1386641 -0.694570313,14.6180391 2.08371094,11.8402266 L3.82305469,10.1008828 C4.28430469,9.63963281 5.07864844,9.94619531 5.10246094,10.5980391 C5.13283594,11.4287578 5.28180469,12.2633672 5.55667969,13.0693359 C5.64977344,13.3422422 5.58325781,13.6441172 5.37935156,13.8480234 L4.76589844,14.4614766 C3.45217969,15.7751953 3.41097656,17.9142891 4.71175781,19.2408516 C6.02538281,20.5804922 8.18453906,20.5884609 9.50824219,19.2647578 L12.6582422,16.1152266 C13.9796953,14.7937734 13.9741641,12.6578672 12.6582422,11.3419453 C12.4847578,11.1687891 12.3100078,11.0342578 12.1735078,10.9402734 C11.9777015,10.8058133 11.8569627,10.5867212 11.8478672,10.3493672 C11.8293047,9.85403906 12.0048047,9.34361719 12.3962109,8.95221094 L13.3831172,7.96525781 C13.6419141,7.70646094 14.0478984,7.67467969 14.3479922,7.88411719 C14.691665,8.12409353 15.0135619,8.39383628 15.3099609,8.69022656 Z M21.9162891,2.08357031 C19.1384297,-0.694335935 14.6183203,-0.694710935 11.8400391,2.08357031 L8.69003906,5.23357031 C8.68441406,5.23919531 8.67832031,5.24528906 8.67316406,5.25091406 C5.92788281,8.01147656 5.88939844,12.5062734 8.69003906,15.3098203 C8.98642066,15.6061972 9.30830218,15.8759245 9.65196094,16.1158828 C9.95205469,16.3253203 10.3580859,16.2934922 10.6168359,16.0347422 L11.6037422,15.0477891 C11.9951484,14.6563828 12.1706484,14.1459609 12.1520859,13.6506328 C12.1429904,13.4132788 12.0222516,13.1941867 11.8264453,13.0597266 C11.6899453,12.9657422 11.5151953,12.8312109 11.3417109,12.6580547 C10.0257891,11.3421328 10.0202578,9.20622656 11.3417109,7.88477344 L14.4917109,4.73524219 C15.8154141,3.41153906 17.9745234,3.41950781 19.2881953,4.75914844 C20.5889766,6.08571094 20.5478203,8.22480469 19.2340547,9.53852344 L18.6206016,10.1519766 C18.4166953,10.3558828 18.3501797,10.6577578 18.4432734,10.9306641 C18.7181484,11.7366328 18.8671172,12.5712422 18.8974922,13.4019609 C18.9213516,14.0538047 19.7156484,14.3603672 20.1768984,13.8991172 L21.9162422,12.1597734 C24.6945703,9.38200781 24.6945703,4.86138281 21.9162891,2.08357031 L21.9162891,2.08357031 Z" id="Shape"></path>
        </g>
    </g>
</svg>