<?xml version="1.0" encoding="UTF-8"?>
<svg width="24px" height="24px" viewBox="0 0 24 24" version="1.1" xmlns="http://www.w3.org/2000/svg" xmlns:xlink="http://www.w3.org/1999/xlink">
    <!-- Generator: Sketch 61.2 (89653) - https://sketch.com -->
    <title>Principles of the game</title>
    <desc>Created with Sketch.</desc>
    <g id="Principles-of-the-game" stroke="none" stroke-width="1" fill="none" fill-rule="evenodd">
        <g id="Group-35-Copy-2" transform="translate(0.000000, 1.000000)" fill="#3B5D99" fill-rule="nonzero">
            <path d="M0.910344445,7.23124846 L11.1166602,11.6027104 C11.4920201,11.7628936 11.916505,11.7628936 12.2918649,11.6027104 L22.4981807,7.23124846 C23.0502325,6.99607539 23.4085251,6.45399479 23.4085251,5.85393852 C23.4085251,5.25388224 23.0502325,4.71180165 22.4981807,4.47662858 L12.2918649,0.12013735 C11.916505,-0.0400457833 11.4920201,-0.0400457833 11.1166602,0.12013735 L0.910344445,4.49159934 C0.358292672,4.72677241 0,5.268853 0,5.86890928 C0,6.46896555 0.358292672,7.01104615 0.910344445,7.24621922 L0.910344445,7.23124846 Z" id="Shape-Copy-2"></path>
            <path d="M21.322976,13.9680906 L11.7042626,18.0551081 L2.08554912,13.9680906 C1.59348367,13.7581605 1.02680008,13.8266909 0.598962556,14.147867 C0.171125035,14.4690431 -0.0528677113,14.9940707 0.0113602166,15.5251769 C0.0755881445,16.0562832 0.418278996,16.5127804 0.910344445,16.7227104 L11.1166602,21.0792017 C11.4920201,21.2393848 11.916505,21.2393848 12.2918649,21.0792017 L22.4981807,16.7077397 C23.0391318,16.5334371 23.4347353,16.0678535 23.5194125,15.5058578 C23.6040898,14.943862 23.3632363,14.382382 22.8976607,14.0564236 C22.4320851,13.7304652 21.8220857,13.6962469 21.322976,13.9680906 L21.322976,13.9680906 Z" id="Path-Copy-10"></path>
            <path d="M21.322976,9.22235957 L11.7042626,13.3280906 L2.08554912,9.2111315 C1.32488185,8.88660773 0.445160696,9.24017187 0.120636893,10.0008391 C-0.203886909,10.7615064 0.1496772,11.6412276 0.910344445,11.9657514 L11.1166602,16.3334707 C11.4920201,16.4936538 11.916505,16.4936538 12.2918649,16.3334707 L22.4981807,11.9769795 C22.9902462,11.7670494 23.332937,11.3105522 23.397165,10.7794459 C23.4613929,10.2483397 23.2374002,9.7233121 22.8095626,9.40213596 C22.3817251,9.08095983 21.8150415,9.01242946 21.322976,9.22235957 L21.322976,9.22235957 Z" id="Path-Copy-11"></path>
        </g>
    </g>
</svg>