<?xml version="1.0" encoding="UTF-8"?>
<svg width="24px" height="24px" viewBox="0 0 24 24" version="1.1" xmlns="http://www.w3.org/2000/svg" xmlns:xlink="http://www.w3.org/1999/xlink">
    <!-- Generator: Sketch 61.2 (89653) - https://sketch.com -->
    <title>Professional staff active</title>
    <desc>Created with Sketch.</desc>
    <g id="Professional-staff-active" stroke="none" stroke-width="1" fill="none" fill-rule="evenodd">
        <g id="Group-4-Copy-2" transform="translate(1.000000, 0.000000)">
            <g id="Group-Copy-2" fill="#FFFFFF">
                <path d="M3.95718473,23.7362637 C7.97652539,23.7362637 14.1590309,23.7362637 18.1791628,23.7267692 C19.6152067,23.7267692 20.9396902,22.9442637 21.6335803,21.6838681 C22.3266792,20.4258462 22.2807891,18.8909011 21.5156902,17.6763956 C19.5170968,14.4387692 15.5974485,12.6593407 11.0669869,12.6593407 C6.53573418,12.6593407 2.61687704,14.4387692 0.609580334,17.6708571 C-0.157892193,18.8837802 -0.204573512,20.4258462 0.491690224,21.6886154 C1.18716275,22.9521758 2.5148111,23.7362637 3.95718473,23.7362637 Z" id="Shape"></path>
                <path d="M11.0669869,0 C8.01054737,0 5.52852539,2.48202198 5.52852539,5.53846154 C5.52852539,8.5949011 8.01054737,11.0769231 11.0669869,11.0769231 C14.1234265,11.0769231 16.6054485,8.5949011 16.6054485,5.53846154 C16.6054485,2.48202198 14.1234265,0 11.0669869,0 Z" id="Shape"></path>
            </g>
            <rect id="Rectangle-Copy-19" fill="#3B5D99" x="14.7692308" y="21.2307692" width="2.76923077" height="1" rx="0.461538462"></rect>
            <path d="M9.23076923,12.7551932 C9.83082256,12.6912915 10.4410967,12.6593407 11.0615918,12.6593407 C11.6820868,12.6593407 12.3025819,12.6912915 12.9230769,12.7551932 L12.9230769,13.8461538 C12.9230769,14.3559552 12.5098013,14.7692308 12,14.7692308 L10.1538462,14.7692308 C9.64404485,14.7692308 9.23076923,14.3559552 9.23076923,13.8461538 L9.23076923,12.7551932 L9.23076923,12.7551932 Z" id="Rectangle-Copy-20" fill="#3B5D99"></path>
            <path d="M10.1400014,14.7692308 L12.0052247,14.7692308 L12.8449163,19.8541406 C12.8939125,20.1508463 12.7953045,20.4528201 12.5806467,20.6634309 L11.7134562,21.5142717 C11.3523157,21.8686034 10.7732465,21.8661991 10.4150608,21.5088807 L9.56633517,20.6622101 C9.35569777,20.4520827 9.25925678,20.1533094 9.30728859,19.8596863 L10.1400014,14.7692308 L10.1400014,14.7692308 Z" id="Rectangle-Copy-21" fill="#3B5D99"></path>
        </g>
    </g>
</svg>