<?xml version="1.0" encoding="UTF-8"?>
<svg width="24px" height="24px" viewBox="0 0 24 24" version="1.1" xmlns="http://www.w3.org/2000/svg" xmlns:xlink="http://www.w3.org/1999/xlink">
    <!-- Generator: Sketch 61.2 (89653) - https://sketch.com -->
    <title>Roles</title>
    <desc>Created with Sketch.</desc>
    <g id="Roles" stroke="none" stroke-width="1" fill="none" fill-rule="evenodd">
        <g id="Group-34-Copy-2" transform="translate(2.000000, 0.000000)" fill="#3B5D99">
            <g id="Group-33">
                <path d="M8.08181808,-2.11547951e-14 C9.71476097,-2.11547951e-14 11.2807518,0.649312507 12.4354165,1.80397725 C13.5900813,2.95864238 14.2393938,4.52463318 14.2393938,6.15757568 L14.2393938,6.15757568 L14.2393938,6.92727264 C14.2393938,6.9490103 14.2375915,6.97032703 14.2341283,6.99108155 L14.0469695,6.99090899 C11.7441093,6.99090899 9.8772726,8.85774535 9.8772726,11.1606059 L9.88326028,11.397346 C9.90316993,11.7899545 9.97248411,12.172158 10.0875066,12.534766 L10.121,12.634 L10.0272822,12.6853584 C9.36196235,13.075094 8.9151514,13.7974896 8.9151514,14.6242422 L8.9151514,15.0090907 L8.92033172,15.1628282 C8.98903118,16.1788484 9.73357762,17.0095156 10.7080686,17.2089255 L10.759,17.217 L10.745246,17.3202445 C10.6327676,18.0624132 10.4038188,18.5741476 9.9899583,19.1134984 C9.71275944,19.4747609 9.54929949,19.6108478 9.06188626,19.8913962 L8.8466352,20.0134112 C8.40971987,20.2605281 8.17418967,20.4277178 7.9115875,20.7459884 C7.55816076,21.1743356 7.37575748,21.7294595 7.37575748,22.3212118 L7.37575748,23.0016286 L7.37575748,23.0016286 C7.41292825,23.478908 7.59203491,23.8606058 8.02935073,23.8606058 L1.53939392,23.8606058 C1.1312698,23.8606058 0.739580642,23.6982093 0.450994312,23.4096114 C0.162342559,23.1210251 -4.01214415e-13,22.729336 -4.01214415e-13,22.3212118 L-4.01214415e-13,22.3212118 L-4.01214415e-13,21.5515149 C-4.01214415e-13,20.8189327 0.417483131,20.148285 1.0748698,19.8249584 C2.77058155,18.9660728 5.26291842,16.9006402 5.38787872,11.9303029 C5.38787872,11.6547013 5.24170942,11.4013856 5.00303024,11.2635829 C4.69527846,11.0859388 4.43905173,11.1818846 4.20552182,11.2786162 L4.20552182,11.2786162 L3.32232458,11.6942826 C2.26917132,12.2088674 0.985590954,11.8492192 0.357037174,10.8546814 C0.123164752,10.4846323 -4.01214415e-13,10.0507483 -4.01214415e-13,9.621212 C-4.01214415e-13,8.85151504 0.30343644,8.16900858 0.889210462,7.8014498 L0.889210462,7.8014498 L3.53429219,6.15381725 C3.8878371,4.07349147 5.60981699,2.50017658 7.6969696,2.326379 L7.6969696,2.326379 L7.6969696,0.33674242 C7.6969696,0.150187119 7.86861202,-2.11547951e-14 8.08181808,-2.11547951e-14 Z M13.8188279,8.09140179 C13.8438581,9.96594012 14.1142062,15.2223414 14.6298723,23.8606058 L14.6298723,23.8606058 L9.62121201,23.8606058 C9.02608345,23.8606058 8.53612417,23.4103204 8.47344128,22.8318605 L8.46666657,22.7060603 L8.46666657,22.3212118 C8.46666657,21.9684328 8.57065532,21.6613268 8.7530481,21.4402698 C8.89896202,21.2634239 9.07174291,21.1450964 9.24964302,21.0400084 L9.76001526,20.7492231 C10.1032601,20.5450385 10.4694107,20.2806918 10.855433,19.7776039 C11.580585,18.8325724 11.855062,17.9262988 11.914457,16.4637411 L11.923538,16.1636362 L11.1606059,16.1636362 C10.5654774,16.1636362 10.0755181,15.7133508 10.0128352,15.1348909 L10.0060605,15.0090907 L10.0060605,14.6242422 C10.0060605,14.0291151 10.4563445,13.5391546 11.0348055,13.4764715 L11.1606059,13.4696968 L11.894975,13.4696968 C11.3135439,12.8998055 10.9681817,12.0739668 10.9681817,11.1606059 C10.9681817,9.57952362 12.159985,8.27680323 13.6942297,8.1018048 Z" id="Combined-Shape"></path>
                <path d="M14.0469695,8.08181808 C12.3466019,8.08181808 10.9681817,9.46023758 10.9681817,11.1606059 C10.9681817,12.0739668 11.3135439,12.8998055 11.8949749,13.4696968 L11.1606059,13.4696968 C10.5229682,13.4696968 10.0060605,13.986606 10.0060605,14.6242422 L10.0060605,15.0090907 C10.0060605,15.6467269 10.5229682,16.1636362 11.1606059,16.1636362 L11.923538,16.1636362 C11.889656,17.8056345 11.6289284,18.7695703 10.855433,19.7776039 C10.3246523,20.4693498 9.83144164,20.7097254 9.38368814,20.9629673 C9.15981254,21.0895901 8.93544049,21.2192125 8.75304809,21.4402698 C8.57065531,21.6613268 8.46666656,21.9684328 8.46666656,22.3212118 L8.46666656,22.7060603 C8.46666656,23.3436965 8.98357426,23.8606058 9.621212,23.8606058 L18.8575755,23.8606058 C19.4952133,23.8606058 20.012121,23.3436965 20.012121,22.7060603 L20.012121,22.3212118 C20.012121,21.9684328 19.9081322,21.6613268 19.7257394,21.4402698 C19.543347,21.2192125 19.318975,21.0895901 19.0950994,20.9629673 C18.6473459,20.7097254 18.1541352,20.4693498 17.6233545,19.7776039 C16.8498591,18.7695703 16.5891316,17.8056345 16.5552495,16.1636362 L17.3181816,16.1636362 C17.9558193,16.1636362 18.472727,15.6467269 18.472727,15.0090907 L18.472727,14.6242422 C18.472727,13.986606 17.9558193,13.4696968 17.3181816,13.4696968 L16.5838126,13.4696968 C17.1652436,12.8998055 17.5106058,12.0739668 17.5106058,11.1606059 C17.5106058,9.46023758 16.1321856,8.08181808 14.431818,8.08181808 L14.0469695,8.08181808 Z" id="Path"></path>
            </g>
        </g>
    </g>
</svg>