<?xml version="1.0" encoding="UTF-8"?>
<svg width="24px" height="24px" viewBox="0 0 24 24" version="1.1" xmlns="http://www.w3.org/2000/svg" xmlns:xlink="http://www.w3.org/1999/xlink">
    <!-- Generator: Sketch 61.2 (89653) - https://sketch.com -->
    <title>Technique</title>
    <desc>Created with Sketch.</desc>
    <g id="Technique" stroke="none" stroke-width="1" fill="none" fill-rule="evenodd">
        <g id="Group-6-Copy-3" fill="#3B5D99">
            <path d="M17.3501114,7.63667235 L17.3501114,15.3945471 C17.3501114,17.2659448 15.8266391,18.8064103 13.9746893,18.8064096 L5.98993348,18.7905727 C5.63074337,18.7905727 5.37088763,19.0574106 5.37088763,19.4331393 L5.37079819,25.517035 C5.33123999,27.3279387 2.66464218,27.3279387 2.625,25.5088453 L2.625,19.4331393 C2.625,17.5590531 4.14134654,16.0133772 5.99067721,16.0133585 L13.975433,16.0291954 C14.3402442,16.0291954 14.6042238,15.7647137 14.6042238,15.3945471 L14.6042238,7.62815901 L12.960087,9.29800661 C12.3757474,9.91857939 11.5380137,9.87620136 10.9905278,9.32088797 C10.4460088,8.76858398 10.403647,7.92801659 11.0047965,7.34255595 L14.9984366,3.28623302 C15.219116,3.06194493 15.5090659,2.92046907 15.8132337,2.88642884 C15.8579692,2.8805406 15.9029303,2.87688562 15.9479692,2.87548495 L15.9545236,2.87533845 C16.327698,2.87026069 16.686564,3.01901592 16.9480817,3.28621183 L20.9342287,7.33702157 C21.5409577,7.92801006 21.4986011,8.76858814 20.9540746,9.32089947 C20.4065815,9.87621976 19.5688369,9.9185933 18.9901847,9.30390988 L17.3501114,7.63667235 Z" id="Path" stroke="#3B5D99" stroke-width="0.75" transform="translate(12.000000, 14.875128) rotate(-270.000000) translate(-12.000000, -14.875128) "></path>
            <path d="M17.9751547,3.66313144 L17.9751547,9.89442116 C17.9751547,12.1094545 16.1734218,13.9312844 13.973493,13.9312824 L5.99339254,13.9154535 C5.99483454,13.9186582 5.99593098,13.9241155 5.99593098,13.9330133 L5.99569247,20.0305586 C5.93832811,22.6565966 2.05763829,22.6565966 2.00004335,20.0087193 L2.00004335,13.9330133 C2.00004335,11.7164019 3.79350105,9.88825491 5.99196012,9.88823381 L13.9754763,9.90406946 C13.9948434,9.90406946 13.9792671,9.91967541 13.9792671,9.89442116 L13.9792671,3.6534614 L13.4151561,4.22633898 C12.5751071,5.11847697 11.3302316,5.05550306 10.5455038,4.25955587 C9.76868775,3.4716336 9.70634818,2.23465735 10.5594703,1.40394282 L14.5529687,-2.65223606 C14.874041,-2.97855882 15.296612,-3.18474482 15.7317158,-3.23335248 C15.7952455,-3.2417145 15.8590786,-3.24699091 15.9231399,-3.24933259 L15.9467208,-3.24991617 C16.4910674,-3.25696509 17.014052,-3.04008556 17.3936016,-2.65229255 L21.3703681,1.38918448 C22.2383435,2.23464178 22.1760116,3.4716352 21.3991851,4.25956751 C20.6144478,5.05552384 19.3695558,5.11849109 18.5446715,4.24208104 L17.9751547,3.66313144 Z" id="Path-Copy-2" stroke="#FFFFFF" stroke-width="2" transform="translate(12.000043, 9.375043) scale(1, -1) rotate(-270.000000) translate(-12.000043, -9.375043) "></path>
            <path d="M17.3501114,2.13654638 L17.3501114,9.89442116 C17.3501114,11.7658189 15.8266391,13.3062844 13.9746893,13.3062836 L5.98993348,13.2904467 C5.63074337,13.2904467 5.37088763,13.5572846 5.37088763,13.9330133 L5.37079819,20.016909 C5.33123999,21.8278128 2.66464218,21.8278128 2.625,20.0087193 L2.625,13.9330133 C2.625,12.0589272 4.14134654,10.5132513 5.99067721,10.5132326 L13.975433,10.5290695 C14.3402442,10.5290695 14.6042238,10.2645878 14.6042238,9.89442116 L14.6042238,2.12803304 L12.960087,3.79788064 C12.3757474,4.41845342 11.5380137,4.3760754 10.9905278,3.82076201 C10.4460088,3.26845802 10.403647,2.42789063 11.0047965,1.84242999 L14.9984366,-2.21389295 C15.219116,-2.43818104 15.5090659,-2.57965689 15.8132337,-2.61369713 C15.8570137,-2.61945961 15.9012595,-2.62311695 15.9459273,-2.62474972 L15.9547701,-2.62496856 C16.3278911,-2.62980023 16.6866464,-2.48102592 16.9480817,-2.21391413 L20.9342287,1.83689561 C21.5409577,2.42788409 21.4986011,3.26846218 20.9540746,3.8207735 C20.4065815,4.3760938 19.5688369,4.41846733 18.9901847,3.80378391 L17.3501114,2.13654638 Z" id="Path-Copy-3" stroke="#3B5D99" stroke-width="0.75" transform="translate(12.000000, 9.375043) scale(1, -1) rotate(-270.000000) translate(-12.000000, -9.375043) "></path>
        </g>
    </g>
</svg>