<?xml version="1.0" encoding="UTF-8"?>
<svg width="24px" height="24px" viewBox="0 0 24 24" version="1.1" xmlns="http://www.w3.org/2000/svg" xmlns:xlink="http://www.w3.org/1999/xlink">
    <!-- Generator: Sketch 61.2 (89653) - https://sketch.com -->
    <title>FMS</title>
    <desc>Created with Sketch.</desc>
    <g id="FMS" stroke="none" stroke-width="1" fill="none" fill-rule="evenodd">
        <g id="Group-4-Copy-2" transform="translate(0.000000, 5.000000)" fill="#3B5D99">
            <g id="Group-2" fill-rule="nonzero">
                <path d="M23.015989,4.35425525 C24.0208739,3.37960935 24.0453874,1.77488263 23.0707415,0.769997794 C22.0960956,-0.234887042 20.4913689,-0.259400548 19.486484,0.715245346 C18.4815992,1.68989124 18.4570857,3.29461796 19.4317316,4.2995028 C20.4063775,5.30438763 22.0111042,5.32890114 23.015989,4.35425525 Z" id="Oval"></path>
                <path d="M20.51569,12.2647871 C21.0383365,11.9250668 21.1951304,11.2456264 20.8815425,10.6968476 L19.470397,8.42333527 L19.2613384,6.54180786 C19.235206,6.17595531 19.0522798,5.62717648 18.8954858,5.31358858 C17.9547221,3.51045815 17.8763251,3.4581935 17.6672665,3.27526722 C17.1968847,2.85715002 16.6219735,2.70035607 15.8902684,2.96167932 C15.1585633,3.22300257 11.1080529,4.66028045 11.1080529,4.66028045 C10.5331418,4.86933905 10.0366276,5.20905928 9.64464272,5.67944113 L7.86764461,7.74389482 C7.78924764,7.84842412 7.65858601,7.9268211 7.52792439,7.97908575 L1.80494518,9.91287781 C1.12550473,10.1480687 0.733519849,10.9059062 0.968710775,11.5853466 C1.07324008,11.8989345 1.54362193,12.1602578 1.80494518,12.3170517 L20.51569,12.2647871 Z M19.2874707,12.2647871 L2.98089981,12.2647871 L17.0923554,7.50870389 L17.223017,8.63239387 C17.2491493,8.9721141 17.379811,9.31183433 17.5627372,9.5992899 L18.9477505,11.8728022 C19.0261474,12.0557285 19.1568091,12.1863901 19.2874707,12.2647871 Z" id="Shape"></path>
            </g>
            <rect id="Rectangle" x="0" y="12" width="24" height="1" rx="0.5"></rect>
        </g>
    </g>
</svg>