<?xml version="1.0" encoding="UTF-8"?>
<svg width="24px" height="24px" viewBox="0 0 24 24" version="1.1" xmlns="http://www.w3.org/2000/svg" xmlns:xlink="http://www.w3.org/1999/xlink">
    <!-- Generator: Sketch 61.2 (89653) - https://sketch.com -->
    <title>Isokinetics</title>
    <desc>Created with Sketch.</desc>
    <g id="Isokinetics" stroke="none" stroke-width="1" fill="none" fill-rule="evenodd">
        <g id="Group-Copy-3" transform="translate(1.000000, 0.000000)" fill="#3B5D99" fill-rule="nonzero">
            <g id="Group">
                <path d="M2.70778235,7.76470588 L0.705882353,7.76470588 C0.316034471,7.76470588 0,7.44867141 0,7.05882353 C0,6.66897565 0.316034471,6.35294118 0.705882353,6.35294118 L5.64705882,6.35294118 C6.03690671,6.35294118 6.35294118,6.66897565 6.35294118,7.05882353 C6.35294118,7.44867141 6.03690671,7.76470588 5.64705882,7.76470588 L4.23958624,7.76470588 L6.51028306,13.1576107 L14.239248,9.72251541 L16.9702602,0.505349294 C17.0590694,0.205617882 17.3344472,0 17.6470588,0 L21.8823529,0 C22.2722008,0 22.5882353,0.316034471 22.5882353,0.705882353 C22.5882353,1.09573024 22.2722008,1.41176471 21.8823529,1.41176471 L18.1741242,1.41176471 L15.6094482,10.0675468 L18.5385639,13.4848486 C19.3560251,14.4385535 19.6050088,15.7548582 19.1923528,16.9412439 L16.9019979,23.5260145 C16.8032894,23.8098007 16.5357568,24 16.2352941,24 L4.23529412,24 C3.92013141,24 3.64315306,23.7910747 3.55657129,23.4880384 L2.61857824,20.2050628 C1.89966918,17.6888813 3.00552459,15.0376324 5.23166118,13.7589184 L2.70778235,7.76470588 Z M13.7750245,15.5294118 L14.8235294,15.5294118 C15.2133773,15.5294118 15.5294118,15.2133773 15.5294118,14.8235294 C15.5294118,14.4336815 15.2133773,14.1176471 14.8235294,14.1176471 L11.2941176,14.1176471 C10.9042698,14.1176471 10.5882353,14.4336815 10.5882353,14.8235294 C10.5882353,15.2133773 10.9042698,15.5294118 11.2941176,15.5294118 L12.0401015,15.5294118 L11.430654,16.3826386 C11.1677516,16.2872891 10.8840656,16.2352941 10.5882353,16.2352941 C9.22376718,16.2352941 8.11764706,17.3414142 8.11764706,18.7058824 C8.11764706,20.0703505 9.22376718,21.1764706 10.5882353,21.1764706 C11.9527034,21.1764706 13.0588235,20.0703505 13.0588235,18.7058824 C13.0588235,18.1497169 12.8750499,17.6364745 12.5649141,17.2235661 L13.7750245,15.5294118 Z M10.5882353,19.7647059 C10.0034633,19.7647059 9.52941176,19.2906544 9.52941176,18.7058824 C9.52941176,18.1211104 10.0034633,17.6470588 10.5882353,17.6470588 C11.1730073,17.6470588 11.6470588,18.1211104 11.6470588,18.7058824 C11.6470588,19.2906544 11.1730073,19.7647059 10.5882353,19.7647059 Z" id="Shape"></path>
            </g>
        </g>
    </g>
</svg>