<?xml version="1.0" encoding="UTF-8"?>
<svg width="24px" height="24px" viewBox="0 0 24 24" version="1.1" xmlns="http://www.w3.org/2000/svg" xmlns:xlink="http://www.w3.org/1999/xlink">
    <!-- Generator: Sketch 61.2 (89653) - https://sketch.com -->
    <title>Speed hover</title>
    <desc>Created with Sketch.</desc>
    <g id="Speed-hover" stroke="none" stroke-width="1" fill="none" fill-rule="evenodd">
        <g id="Group-43-Copy-3" transform="translate(0.000000, 3.000000)" fill-rule="nonzero">
            <path d="M12,1.00523099e-13 C5.38105263,1.00523099e-13 0,5.38105263 0,12 C0,13.9452632 0.48,15.8652632 1.36421053,17.5831579 C1.54105263,17.9368421 1.89473684,18.1389474 2.27368421,18.1389474 C2.42526316,18.1389474 20.64,18.1389474 21.2463158,18.1389474 C21.8579885,18.1389474 22.3578947,18.0884211 22.6357895,17.5831579 C23.5452632,15.8905263 24,13.9452632 24,12 C24,5.38105263 18.6189474,1.00523099e-13 12,1.00523099e-13 Z" id="Path" fill="#FF4B00"></path>
            <path d="M16.8757895,6.01263158 L10.6863158,9.85263158 C9.92842105,10.3326316 9.47368421,11.1663158 9.47368421,12.0505263 C9.49894737,13.4652632 10.6357895,14.6021053 12.0505263,14.5768421 C12.9347368,14.5768421 13.7684211,14.0968421 14.2231579,13.3136842 L17.9368421,7.04842105 C18.3663158,6.36631579 17.5831579,5.58315789 16.8757895,6.01263158 Z" id="Path" fill="#F5F8FB"></path>
            <circle id="Oval" fill="#F5F8FB" cx="12" cy="4.44631579" r="1.08631579"></circle>
            <circle id="Oval" fill="#F5F8FB" transform="translate(6.673422, 6.649503) rotate(-45.000000) translate(-6.673422, -6.649503) " cx="6.67342232" cy="6.64950316" r="1.08630537"></circle>
            <circle id="Oval" fill="#F5F8FB" cx="4.47157895" cy="11.9747368" r="1.08631579"></circle>
            <circle id="Oval" fill="#F5F8FB" cx="19.5536842" cy="12" r="1.08631579"></circle>
        </g>
    </g>
</svg>